<svg xmlns="http://www.w3.org/2000/svg" xmlns:xlink="http://www.w3.org/1999/xlink" width="544" zoomAndPan="magnify" viewBox="0 0 408 407.999985" height="544" preserveAspectRatio="xMidYMid meet" version="1.0"><defs><g/><clipPath id="e4fc7b7637"><path d="M 0.675781 0.789062 L 383.644531 0.789062 L 383.644531 217.210938 L 0.675781 217.210938 Z M 0.675781 0.789062 " clip-rule="nonzero"/></clipPath><clipPath id="a6543159d2"><path d="M 301.570312 0.789062 C 346.722656 0.789062 383.324219 49.234375 383.324219 109 C 383.324219 168.765625 346.722656 217.210938 301.570312 217.210938 L 82.429688 217.210938 C 37.277344 217.210938 0.675781 168.765625 0.675781 109 C 0.675781 49.234375 37.277344 0.789062 82.429688 0.789062 Z M 301.570312 0.789062 " clip-rule="nonzero"/></clipPath><clipPath id="ef21b5f86b"><path d="M 0.675781 0.789062 L 383.320312 0.789062 L 383.320312 217.210938 L 0.675781 217.210938 Z M 0.675781 0.789062 " clip-rule="nonzero"/></clipPath><clipPath id="faa52b56be"><path d="M 301.570312 0.789062 C 346.722656 0.789062 383.324219 49.234375 383.324219 109 C 383.324219 168.765625 346.722656 217.210938 301.570312 217.210938 L 82.429688 217.210938 C 37.277344 217.210938 0.675781 168.765625 0.675781 109 C 0.675781 49.234375 37.277344 0.789062 82.429688 0.789062 Z M 301.570312 0.789062 " clip-rule="nonzero"/></clipPath><linearGradient x1="0.00730878" gradientTransform="matrix(0.845407, 0, 0, 0.845407, 0.668189, 0.787839)" y1="128" x2="452.62399" gradientUnits="userSpaceOnUse" y2="128" id="68d051094d"><stop stop-opacity="1" stop-color="rgb(54.898071%, 32.159424%, 99.998474%)" offset="0"/><stop stop-opacity="1" stop-color="rgb(54.682922%, 32.325745%, 99.758911%)" offset="0.00390625"/><stop stop-opacity="1" stop-color="rgb(54.469299%, 32.493591%, 99.520874%)" offset="0.0078125"/><stop stop-opacity="1" stop-color="rgb(54.25415%, 32.659912%, 99.281311%)" offset="0.0117187"/><stop stop-opacity="1" stop-color="rgb(54.040527%, 32.827759%, 99.041748%)" offset="0.015625"/><stop stop-opacity="1" stop-color="rgb(53.825378%, 32.99408%, 98.802185%)" offset="0.0195312"/><stop stop-opacity="1" stop-color="rgb(53.611755%, 33.161926%, 98.564148%)" offset="0.0234375"/><stop stop-opacity="1" stop-color="rgb(53.396606%, 33.328247%, 98.324585%)" offset="0.0273437"/><stop stop-opacity="1" stop-color="rgb(53.182983%, 33.496094%, 98.086548%)" offset="0.03125"/><stop stop-opacity="1" stop-color="rgb(52.967834%, 33.662415%, 97.846985%)" offset="0.0351562"/><stop stop-opacity="1" stop-color="rgb(52.754211%, 33.828735%, 97.608948%)" offset="0.0390625"/><stop stop-opacity="1" stop-color="rgb(52.539062%, 33.995056%, 97.369385%)" offset="0.0429687"/><stop stop-opacity="1" stop-color="rgb(52.325439%, 34.162903%, 97.129822%)" offset="0.046875"/><stop stop-opacity="1" stop-color="rgb(52.110291%, 34.329224%, 96.890259%)" offset="0.0507812"/><stop stop-opacity="1" stop-color="rgb(51.896667%, 34.49707%, 96.652222%)" offset="0.0546875"/><stop stop-opacity="1" stop-color="rgb(51.681519%, 34.663391%, 96.412659%)" offset="0.0585937"/><stop stop-opacity="1" stop-color="rgb(51.467896%, 34.831238%, 96.174622%)" offset="0.0625"/><stop stop-opacity="1" stop-color="rgb(51.252747%, 34.997559%, 95.935059%)" offset="0.0664062"/><stop stop-opacity="1" stop-color="rgb(51.037598%, 35.165405%, 95.697021%)" offset="0.0703125"/><stop stop-opacity="1" stop-color="rgb(50.822449%, 35.331726%, 95.457458%)" offset="0.0742187"/><stop stop-opacity="1" stop-color="rgb(50.608826%, 35.499573%, 95.217896%)" offset="0.078125"/><stop stop-opacity="1" stop-color="rgb(50.393677%, 35.665894%, 94.978333%)" offset="0.0820312"/><stop stop-opacity="1" stop-color="rgb(50.180054%, 35.832214%, 94.740295%)" offset="0.0859375"/><stop stop-opacity="1" stop-color="rgb(49.964905%, 35.998535%, 94.500732%)" offset="0.0898437"/><stop stop-opacity="1" stop-color="rgb(49.751282%, 36.166382%, 94.262695%)" offset="0.09375"/><stop stop-opacity="1" stop-color="rgb(49.536133%, 36.332703%, 94.023132%)" offset="0.0976562"/><stop stop-opacity="1" stop-color="rgb(49.32251%, 36.500549%, 93.785095%)" offset="0.101562"/><stop stop-opacity="1" stop-color="rgb(49.107361%, 36.66687%, 93.545532%)" offset="0.105469"/><stop stop-opacity="1" stop-color="rgb(48.893738%, 36.834717%, 93.307495%)" offset="0.109375"/><stop stop-opacity="1" stop-color="rgb(48.678589%, 37.001038%, 93.067932%)" offset="0.113281"/><stop stop-opacity="1" stop-color="rgb(48.464966%, 37.168884%, 92.828369%)" offset="0.117187"/><stop stop-opacity="1" stop-color="rgb(48.249817%, 37.335205%, 92.588806%)" offset="0.121094"/><stop stop-opacity="1" stop-color="rgb(48.036194%, 37.503052%, 92.350769%)" offset="0.125"/><stop stop-opacity="1" stop-color="rgb(47.821045%, 37.669373%, 92.111206%)" offset="0.128906"/><stop stop-opacity="1" stop-color="rgb(47.607422%, 37.835693%, 91.873169%)" offset="0.132812"/><stop stop-opacity="1" stop-color="rgb(47.392273%, 38.002014%, 91.633606%)" offset="0.136719"/><stop stop-opacity="1" stop-color="rgb(47.17865%, 38.169861%, 91.395569%)" offset="0.140625"/><stop stop-opacity="1" stop-color="rgb(46.963501%, 38.336182%, 91.156006%)" offset="0.144531"/><stop stop-opacity="1" stop-color="rgb(46.749878%, 38.504028%, 90.916443%)" offset="0.148437"/><stop stop-opacity="1" stop-color="rgb(46.534729%, 38.670349%, 90.67688%)" offset="0.152344"/><stop stop-opacity="1" stop-color="rgb(46.321106%, 38.838196%, 90.438843%)" offset="0.15625"/><stop stop-opacity="1" stop-color="rgb(46.105957%, 39.004517%, 90.19928%)" offset="0.160156"/><stop stop-opacity="1" stop-color="rgb(45.890808%, 39.172363%, 89.961243%)" offset="0.164062"/><stop stop-opacity="1" stop-color="rgb(45.675659%, 39.338684%, 89.72168%)" offset="0.167969"/><stop stop-opacity="1" stop-color="rgb(45.462036%, 39.505005%, 89.483643%)" offset="0.171875"/><stop stop-opacity="1" stop-color="rgb(45.246887%, 39.671326%, 89.24408%)" offset="0.175781"/><stop stop-opacity="1" stop-color="rgb(45.033264%, 39.839172%, 89.004517%)" offset="0.179687"/><stop stop-opacity="1" stop-color="rgb(44.818115%, 40.005493%, 88.764954%)" offset="0.183594"/><stop stop-opacity="1" stop-color="rgb(44.604492%, 40.17334%, 88.526917%)" offset="0.1875"/><stop stop-opacity="1" stop-color="rgb(44.389343%, 40.339661%, 88.287354%)" offset="0.191406"/><stop stop-opacity="1" stop-color="rgb(44.17572%, 40.507507%, 88.049316%)" offset="0.195312"/><stop stop-opacity="1" stop-color="rgb(43.960571%, 40.673828%, 87.809753%)" offset="0.199219"/><stop stop-opacity="1" stop-color="rgb(43.746948%, 40.841675%, 87.571716%)" offset="0.203125"/><stop stop-opacity="1" stop-color="rgb(43.531799%, 41.007996%, 87.332153%)" offset="0.207031"/><stop stop-opacity="1" stop-color="rgb(43.318176%, 41.175842%, 87.09259%)" offset="0.210937"/><stop stop-opacity="1" stop-color="rgb(43.103027%, 41.342163%, 86.853027%)" offset="0.214844"/><stop stop-opacity="1" stop-color="rgb(42.889404%, 41.508484%, 86.61499%)" offset="0.21875"/><stop stop-opacity="1" stop-color="rgb(42.674255%, 41.674805%, 86.375427%)" offset="0.222656"/><stop stop-opacity="1" stop-color="rgb(42.460632%, 41.842651%, 86.13739%)" offset="0.226562"/><stop stop-opacity="1" stop-color="rgb(42.245483%, 42.008972%, 85.897827%)" offset="0.230469"/><stop stop-opacity="1" stop-color="rgb(42.03186%, 42.176819%, 85.65979%)" offset="0.234375"/><stop stop-opacity="1" stop-color="rgb(41.816711%, 42.34314%, 85.420227%)" offset="0.238281"/><stop stop-opacity="1" stop-color="rgb(41.603088%, 42.510986%, 85.18219%)" offset="0.242187"/><stop stop-opacity="1" stop-color="rgb(41.387939%, 42.677307%, 84.942627%)" offset="0.246094"/><stop stop-opacity="1" stop-color="rgb(41.174316%, 42.845154%, 84.703064%)" offset="0.25"/><stop stop-opacity="1" stop-color="rgb(40.959167%, 43.011475%, 84.463501%)" offset="0.253906"/><stop stop-opacity="1" stop-color="rgb(40.744019%, 43.179321%, 84.225464%)" offset="0.257812"/><stop stop-opacity="1" stop-color="rgb(40.52887%, 43.345642%, 83.985901%)" offset="0.261719"/><stop stop-opacity="1" stop-color="rgb(40.315247%, 43.511963%, 83.747864%)" offset="0.265625"/><stop stop-opacity="1" stop-color="rgb(40.100098%, 43.678284%, 83.508301%)" offset="0.269531"/><stop stop-opacity="1" stop-color="rgb(39.886475%, 43.84613%, 83.270264%)" offset="0.273438"/><stop stop-opacity="1" stop-color="rgb(39.671326%, 44.012451%, 83.030701%)" offset="0.277344"/><stop stop-opacity="1" stop-color="rgb(39.457703%, 44.180298%, 82.791138%)" offset="0.28125"/><stop stop-opacity="1" stop-color="rgb(39.242554%, 44.346619%, 82.551575%)" offset="0.285156"/><stop stop-opacity="1" stop-color="rgb(39.028931%, 44.514465%, 82.313538%)" offset="0.289062"/><stop stop-opacity="1" stop-color="rgb(38.813782%, 44.680786%, 82.073975%)" offset="0.292969"/><stop stop-opacity="1" stop-color="rgb(38.600159%, 44.848633%, 81.835938%)" offset="0.296875"/><stop stop-opacity="1" stop-color="rgb(38.38501%, 45.014954%, 81.596375%)" offset="0.300781"/><stop stop-opacity="1" stop-color="rgb(38.171387%, 45.1828%, 81.358337%)" offset="0.304688"/><stop stop-opacity="1" stop-color="rgb(37.956238%, 45.349121%, 81.118774%)" offset="0.308594"/><stop stop-opacity="1" stop-color="rgb(37.742615%, 45.515442%, 80.879211%)" offset="0.3125"/><stop stop-opacity="1" stop-color="rgb(37.527466%, 45.681763%, 80.639648%)" offset="0.316406"/><stop stop-opacity="1" stop-color="rgb(37.313843%, 45.849609%, 80.401611%)" offset="0.320312"/><stop stop-opacity="1" stop-color="rgb(37.098694%, 46.01593%, 80.162048%)" offset="0.324219"/><stop stop-opacity="1" stop-color="rgb(36.885071%, 46.183777%, 79.924011%)" offset="0.328125"/><stop stop-opacity="1" stop-color="rgb(36.669922%, 46.350098%, 79.684448%)" offset="0.332031"/><stop stop-opacity="1" stop-color="rgb(36.456299%, 46.517944%, 79.446411%)" offset="0.335938"/><stop stop-opacity="1" stop-color="rgb(36.24115%, 46.684265%, 79.206848%)" offset="0.339844"/><stop stop-opacity="1" stop-color="rgb(36.027527%, 46.852112%, 78.967285%)" offset="0.34375"/><stop stop-opacity="1" stop-color="rgb(35.812378%, 47.018433%, 78.727722%)" offset="0.347656"/><stop stop-opacity="1" stop-color="rgb(35.597229%, 47.184753%, 78.489685%)" offset="0.351562"/><stop stop-opacity="1" stop-color="rgb(35.38208%, 47.351074%, 78.250122%)" offset="0.355469"/><stop stop-opacity="1" stop-color="rgb(35.168457%, 47.518921%, 78.012085%)" offset="0.359375"/><stop stop-opacity="1" stop-color="rgb(34.953308%, 47.685242%, 77.772522%)" offset="0.363281"/><stop stop-opacity="1" stop-color="rgb(34.739685%, 47.853088%, 77.534485%)" offset="0.367188"/><stop stop-opacity="1" stop-color="rgb(34.524536%, 48.019409%, 77.294922%)" offset="0.371094"/><stop stop-opacity="1" stop-color="rgb(34.310913%, 48.187256%, 77.055359%)" offset="0.375"/><stop stop-opacity="1" stop-color="rgb(34.095764%, 48.353577%, 76.815796%)" offset="0.378906"/><stop stop-opacity="1" stop-color="rgb(33.882141%, 48.521423%, 76.577759%)" offset="0.382812"/><stop stop-opacity="1" stop-color="rgb(33.666992%, 48.687744%, 76.338196%)" offset="0.386719"/><stop stop-opacity="1" stop-color="rgb(33.453369%, 48.855591%, 76.100159%)" offset="0.390625"/><stop stop-opacity="1" stop-color="rgb(33.23822%, 49.021912%, 75.860596%)" offset="0.394531"/><stop stop-opacity="1" stop-color="rgb(33.024597%, 49.188232%, 75.622559%)" offset="0.398438"/><stop stop-opacity="1" stop-color="rgb(32.809448%, 49.354553%, 75.382996%)" offset="0.402344"/><stop stop-opacity="1" stop-color="rgb(32.595825%, 49.5224%, 75.144958%)" offset="0.40625"/><stop stop-opacity="1" stop-color="rgb(32.380676%, 49.688721%, 74.905396%)" offset="0.410156"/><stop stop-opacity="1" stop-color="rgb(32.167053%, 49.856567%, 74.665833%)" offset="0.414062"/><stop stop-opacity="1" stop-color="rgb(31.951904%, 50.022888%, 74.42627%)" offset="0.417969"/><stop stop-opacity="1" stop-color="rgb(31.738281%, 50.190735%, 74.188232%)" offset="0.421875"/><stop stop-opacity="1" stop-color="rgb(31.523132%, 50.357056%, 73.948669%)" offset="0.425781"/><stop stop-opacity="1" stop-color="rgb(31.309509%, 50.524902%, 73.710632%)" offset="0.429688"/><stop stop-opacity="1" stop-color="rgb(31.09436%, 50.691223%, 73.471069%)" offset="0.433594"/><stop stop-opacity="1" stop-color="rgb(30.880737%, 50.85907%, 73.233032%)" offset="0.4375"/><stop stop-opacity="1" stop-color="rgb(30.665588%, 51.025391%, 72.993469%)" offset="0.441406"/><stop stop-opacity="1" stop-color="rgb(30.450439%, 51.191711%, 72.753906%)" offset="0.445312"/><stop stop-opacity="1" stop-color="rgb(30.235291%, 51.358032%, 72.514343%)" offset="0.449219"/><stop stop-opacity="1" stop-color="rgb(30.021667%, 51.525879%, 72.276306%)" offset="0.453125"/><stop stop-opacity="1" stop-color="rgb(29.806519%, 51.6922%, 72.036743%)" offset="0.457031"/><stop stop-opacity="1" stop-color="rgb(29.592896%, 51.860046%, 71.798706%)" offset="0.460938"/><stop stop-opacity="1" stop-color="rgb(29.377747%, 52.026367%, 71.559143%)" offset="0.464844"/><stop stop-opacity="1" stop-color="rgb(29.164124%, 52.194214%, 71.321106%)" offset="0.46875"/><stop stop-opacity="1" stop-color="rgb(28.948975%, 52.360535%, 71.081543%)" offset="0.472656"/><stop stop-opacity="1" stop-color="rgb(28.735352%, 52.528381%, 70.84198%)" offset="0.476562"/><stop stop-opacity="1" stop-color="rgb(28.520203%, 52.694702%, 70.602417%)" offset="0.480469"/><stop stop-opacity="1" stop-color="rgb(28.30658%, 52.861023%, 70.36438%)" offset="0.484375"/><stop stop-opacity="1" stop-color="rgb(28.091431%, 53.027344%, 70.124817%)" offset="0.488281"/><stop stop-opacity="1" stop-color="rgb(27.877808%, 53.19519%, 69.88678%)" offset="0.492188"/><stop stop-opacity="1" stop-color="rgb(27.662659%, 53.361511%, 69.647217%)" offset="0.496094"/><stop stop-opacity="1" stop-color="rgb(27.449036%, 53.529358%, 69.40918%)" offset="0.5"/><stop stop-opacity="1" stop-color="rgb(27.233887%, 53.695679%, 69.169617%)" offset="0.503906"/><stop stop-opacity="1" stop-color="rgb(27.020264%, 53.863525%, 68.930054%)" offset="0.507812"/><stop stop-opacity="1" stop-color="rgb(26.805115%, 54.029846%, 68.690491%)" offset="0.511719"/><stop stop-opacity="1" stop-color="rgb(26.591492%, 54.197693%, 68.452454%)" offset="0.515625"/><stop stop-opacity="1" stop-color="rgb(26.376343%, 54.364014%, 68.212891%)" offset="0.519531"/><stop stop-opacity="1" stop-color="rgb(26.16272%, 54.53186%, 67.974854%)" offset="0.523438"/><stop stop-opacity="1" stop-color="rgb(25.947571%, 54.698181%, 67.735291%)" offset="0.527344"/><stop stop-opacity="1" stop-color="rgb(25.733948%, 54.864502%, 67.497253%)" offset="0.53125"/><stop stop-opacity="1" stop-color="rgb(25.518799%, 55.030823%, 67.25769%)" offset="0.535156"/><stop stop-opacity="1" stop-color="rgb(25.30365%, 55.198669%, 67.019653%)" offset="0.539062"/><stop stop-opacity="1" stop-color="rgb(25.088501%, 55.36499%, 66.78009%)" offset="0.542969"/><stop stop-opacity="1" stop-color="rgb(24.874878%, 55.532837%, 66.540527%)" offset="0.546875"/><stop stop-opacity="1" stop-color="rgb(24.659729%, 55.699158%, 66.300964%)" offset="0.550781"/><stop stop-opacity="1" stop-color="rgb(24.446106%, 55.867004%, 66.062927%)" offset="0.554688"/><stop stop-opacity="1" stop-color="rgb(24.230957%, 56.033325%, 65.823364%)" offset="0.558594"/><stop stop-opacity="1" stop-color="rgb(24.017334%, 56.201172%, 65.585327%)" offset="0.5625"/><stop stop-opacity="1" stop-color="rgb(23.802185%, 56.367493%, 65.345764%)" offset="0.566406"/><stop stop-opacity="1" stop-color="rgb(23.588562%, 56.535339%, 65.107727%)" offset="0.570312"/><stop stop-opacity="1" stop-color="rgb(23.373413%, 56.70166%, 64.868164%)" offset="0.574219"/><stop stop-opacity="1" stop-color="rgb(23.15979%, 56.867981%, 64.628601%)" offset="0.578125"/><stop stop-opacity="1" stop-color="rgb(22.944641%, 57.034302%, 64.389038%)" offset="0.582031"/><stop stop-opacity="1" stop-color="rgb(22.731018%, 57.202148%, 64.151001%)" offset="0.585938"/><stop stop-opacity="1" stop-color="rgb(22.515869%, 57.368469%, 63.911438%)" offset="0.589844"/><stop stop-opacity="1" stop-color="rgb(22.302246%, 57.536316%, 63.673401%)" offset="0.59375"/><stop stop-opacity="1" stop-color="rgb(22.087097%, 57.702637%, 63.433838%)" offset="0.597656"/><stop stop-opacity="1" stop-color="rgb(21.873474%, 57.870483%, 63.195801%)" offset="0.601562"/><stop stop-opacity="1" stop-color="rgb(21.658325%, 58.036804%, 62.956238%)" offset="0.605469"/><stop stop-opacity="1" stop-color="rgb(21.444702%, 58.204651%, 62.716675%)" offset="0.609375"/><stop stop-opacity="1" stop-color="rgb(21.229553%, 58.370972%, 62.477112%)" offset="0.613281"/><stop stop-opacity="1" stop-color="rgb(21.01593%, 58.538818%, 62.239075%)" offset="0.617188"/><stop stop-opacity="1" stop-color="rgb(20.800781%, 58.705139%, 61.999512%)" offset="0.621094"/><stop stop-opacity="1" stop-color="rgb(20.587158%, 58.87146%, 61.761475%)" offset="0.625"/><stop stop-opacity="1" stop-color="rgb(20.372009%, 59.037781%, 61.521912%)" offset="0.628906"/><stop stop-opacity="1" stop-color="rgb(20.15686%, 59.205627%, 61.283875%)" offset="0.632812"/><stop stop-opacity="1" stop-color="rgb(19.941711%, 59.371948%, 61.044312%)" offset="0.636719"/><stop stop-opacity="1" stop-color="rgb(19.728088%, 59.539795%, 60.804749%)" offset="0.640625"/><stop stop-opacity="1" stop-color="rgb(19.512939%, 59.706116%, 60.565186%)" offset="0.644531"/><stop stop-opacity="1" stop-color="rgb(19.299316%, 59.873962%, 60.327148%)" offset="0.648438"/><stop stop-opacity="1" stop-color="rgb(19.084167%, 60.040283%, 60.087585%)" offset="0.652344"/><stop stop-opacity="1" stop-color="rgb(18.870544%, 60.20813%, 59.849548%)" offset="0.65625"/><stop stop-opacity="1" stop-color="rgb(18.655396%, 60.374451%, 59.609985%)" offset="0.660156"/><stop stop-opacity="1" stop-color="rgb(18.441772%, 60.540771%, 59.371948%)" offset="0.664062"/><stop stop-opacity="1" stop-color="rgb(18.226624%, 60.707092%, 59.132385%)" offset="0.667969"/><stop stop-opacity="1" stop-color="rgb(18.013%, 60.874939%, 58.894348%)" offset="0.671875"/><stop stop-opacity="1" stop-color="rgb(17.797852%, 61.04126%, 58.654785%)" offset="0.675781"/><stop stop-opacity="1" stop-color="rgb(17.584229%, 61.209106%, 58.415222%)" offset="0.679688"/><stop stop-opacity="1" stop-color="rgb(17.36908%, 61.375427%, 58.175659%)" offset="0.683594"/><stop stop-opacity="1" stop-color="rgb(17.155457%, 61.543274%, 57.937622%)" offset="0.6875"/><stop stop-opacity="1" stop-color="rgb(16.940308%, 61.709595%, 57.698059%)" offset="0.691406"/><stop stop-opacity="1" stop-color="rgb(16.726685%, 61.877441%, 57.460022%)" offset="0.695312"/><stop stop-opacity="1" stop-color="rgb(16.511536%, 62.043762%, 57.220459%)" offset="0.699219"/><stop stop-opacity="1" stop-color="rgb(16.297913%, 62.211609%, 56.982422%)" offset="0.703125"/><stop stop-opacity="1" stop-color="rgb(16.082764%, 62.37793%, 56.742859%)" offset="0.707031"/><stop stop-opacity="1" stop-color="rgb(15.869141%, 62.54425%, 56.503296%)" offset="0.710938"/><stop stop-opacity="1" stop-color="rgb(15.653992%, 62.710571%, 56.263733%)" offset="0.714844"/><stop stop-opacity="1" stop-color="rgb(15.440369%, 62.878418%, 56.025696%)" offset="0.71875"/><stop stop-opacity="1" stop-color="rgb(15.22522%, 63.044739%, 55.786133%)" offset="0.722656"/><stop stop-opacity="1" stop-color="rgb(15.010071%, 63.212585%, 55.548096%)" offset="0.726562"/><stop stop-opacity="1" stop-color="rgb(14.794922%, 63.378906%, 55.308533%)" offset="0.730469"/><stop stop-opacity="1" stop-color="rgb(14.581299%, 63.546753%, 55.070496%)" offset="0.734375"/><stop stop-opacity="1" stop-color="rgb(14.36615%, 63.713074%, 54.830933%)" offset="0.738281"/><stop stop-opacity="1" stop-color="rgb(14.152527%, 63.88092%, 54.59137%)" offset="0.742188"/><stop stop-opacity="1" stop-color="rgb(13.937378%, 64.047241%, 54.351807%)" offset="0.746094"/><stop stop-opacity="1" stop-color="rgb(13.723755%, 64.215088%, 54.11377%)" offset="0.75"/><stop stop-opacity="1" stop-color="rgb(13.508606%, 64.381409%, 53.874207%)" offset="0.753906"/><stop stop-opacity="1" stop-color="rgb(13.294983%, 64.547729%, 53.636169%)" offset="0.757812"/><stop stop-opacity="1" stop-color="rgb(13.079834%, 64.71405%, 53.396606%)" offset="0.761719"/><stop stop-opacity="1" stop-color="rgb(12.866211%, 64.881897%, 53.158569%)" offset="0.765625"/><stop stop-opacity="1" stop-color="rgb(12.651062%, 65.048218%, 52.919006%)" offset="0.769531"/><stop stop-opacity="1" stop-color="rgb(12.437439%, 65.216064%, 52.679443%)" offset="0.773438"/><stop stop-opacity="1" stop-color="rgb(12.22229%, 65.382385%, 52.43988%)" offset="0.777344"/><stop stop-opacity="1" stop-color="rgb(12.008667%, 65.550232%, 52.201843%)" offset="0.78125"/><stop stop-opacity="1" stop-color="rgb(11.793518%, 65.716553%, 51.96228%)" offset="0.785156"/><stop stop-opacity="1" stop-color="rgb(11.579895%, 65.884399%, 51.724243%)" offset="0.789062"/><stop stop-opacity="1" stop-color="rgb(11.364746%, 66.05072%, 51.48468%)" offset="0.792969"/><stop stop-opacity="1" stop-color="rgb(11.151123%, 66.218567%, 51.246643%)" offset="0.796875"/><stop stop-opacity="1" stop-color="rgb(10.935974%, 66.384888%, 51.00708%)" offset="0.800781"/><stop stop-opacity="1" stop-color="rgb(10.722351%, 66.551208%, 50.767517%)" offset="0.804688"/><stop stop-opacity="1" stop-color="rgb(10.507202%, 66.717529%, 50.527954%)" offset="0.808594"/><stop stop-opacity="1" stop-color="rgb(10.293579%, 66.885376%, 50.289917%)" offset="0.8125"/><stop stop-opacity="1" stop-color="rgb(10.07843%, 67.051697%, 50.050354%)" offset="0.816406"/><stop stop-opacity="1" stop-color="rgb(9.863281%, 67.219543%, 49.812317%)" offset="0.820312"/><stop stop-opacity="1" stop-color="rgb(9.648132%, 67.385864%, 49.572754%)" offset="0.824219"/><stop stop-opacity="1" stop-color="rgb(9.434509%, 67.553711%, 49.334717%)" offset="0.828125"/><stop stop-opacity="1" stop-color="rgb(9.21936%, 67.720032%, 49.095154%)" offset="0.832031"/><stop stop-opacity="1" stop-color="rgb(9.005737%, 67.887878%, 48.857117%)" offset="0.835938"/><stop stop-opacity="1" stop-color="rgb(8.790588%, 68.054199%, 48.617554%)" offset="0.839844"/><stop stop-opacity="1" stop-color="rgb(8.576965%, 68.22052%, 48.377991%)" offset="0.84375"/><stop stop-opacity="1" stop-color="rgb(8.361816%, 68.386841%, 48.138428%)" offset="0.847656"/><stop stop-opacity="1" stop-color="rgb(8.148193%, 68.554688%, 47.900391%)" offset="0.851562"/><stop stop-opacity="1" stop-color="rgb(7.933044%, 68.721008%, 47.660828%)" offset="0.855469"/><stop stop-opacity="1" stop-color="rgb(7.719421%, 68.888855%, 47.422791%)" offset="0.859375"/><stop stop-opacity="1" stop-color="rgb(7.504272%, 69.055176%, 47.183228%)" offset="0.863281"/><stop stop-opacity="1" stop-color="rgb(7.290649%, 69.223022%, 46.94519%)" offset="0.867188"/><stop stop-opacity="1" stop-color="rgb(7.0755%, 69.389343%, 46.705627%)" offset="0.871094"/><stop stop-opacity="1" stop-color="rgb(6.861877%, 69.55719%, 46.466064%)" offset="0.875"/><stop stop-opacity="1" stop-color="rgb(6.646729%, 69.723511%, 46.226501%)" offset="0.878906"/><stop stop-opacity="1" stop-color="rgb(6.433105%, 69.891357%, 45.988464%)" offset="0.882812"/><stop stop-opacity="1" stop-color="rgb(6.217957%, 70.057678%, 45.748901%)" offset="0.886719"/><stop stop-opacity="1" stop-color="rgb(6.004333%, 70.223999%, 45.510864%)" offset="0.890625"/><stop stop-opacity="1" stop-color="rgb(5.789185%, 70.39032%, 45.271301%)" offset="0.894531"/><stop stop-opacity="1" stop-color="rgb(5.575562%, 70.558167%, 45.033264%)" offset="0.898438"/><stop stop-opacity="1" stop-color="rgb(5.360413%, 70.724487%, 44.793701%)" offset="0.902344"/><stop stop-opacity="1" stop-color="rgb(5.14679%, 70.892334%, 44.554138%)" offset="0.90625"/><stop stop-opacity="1" stop-color="rgb(4.931641%, 71.058655%, 44.314575%)" offset="0.910156"/><stop stop-opacity="1" stop-color="rgb(4.716492%, 71.226501%, 44.076538%)" offset="0.914062"/><stop stop-opacity="1" stop-color="rgb(4.501343%, 71.392822%, 43.836975%)" offset="0.917969"/><stop stop-opacity="1" stop-color="rgb(4.28772%, 71.560669%, 43.598938%)" offset="0.921875"/><stop stop-opacity="1" stop-color="rgb(4.072571%, 71.72699%, 43.359375%)" offset="0.925781"/><stop stop-opacity="1" stop-color="rgb(3.858948%, 71.894836%, 43.121338%)" offset="0.929688"/><stop stop-opacity="1" stop-color="rgb(3.643799%, 72.061157%, 42.881775%)" offset="0.933594"/><stop stop-opacity="1" stop-color="rgb(3.430176%, 72.227478%, 42.642212%)" offset="0.9375"/><stop stop-opacity="1" stop-color="rgb(3.215027%, 72.393799%, 42.402649%)" offset="0.941406"/><stop stop-opacity="1" stop-color="rgb(3.001404%, 72.561646%, 42.164612%)" offset="0.945312"/><stop stop-opacity="1" stop-color="rgb(2.786255%, 72.727966%, 41.925049%)" offset="0.949219"/><stop stop-opacity="1" stop-color="rgb(2.572632%, 72.895813%, 41.687012%)" offset="0.953125"/><stop stop-opacity="1" stop-color="rgb(2.357483%, 73.062134%, 41.447449%)" offset="0.957031"/><stop stop-opacity="1" stop-color="rgb(2.14386%, 73.22998%, 41.209412%)" offset="0.960938"/><stop stop-opacity="1" stop-color="rgb(1.928711%, 73.396301%, 40.969849%)" offset="0.964844"/><stop stop-opacity="1" stop-color="rgb(1.715088%, 73.564148%, 40.731812%)" offset="0.96875"/><stop stop-opacity="1" stop-color="rgb(1.499939%, 73.730469%, 40.492249%)" offset="0.972656"/><stop stop-opacity="1" stop-color="rgb(1.286316%, 73.89679%, 40.252686%)" offset="0.976562"/><stop stop-opacity="1" stop-color="rgb(1.071167%, 74.06311%, 40.013123%)" offset="0.980469"/><stop stop-opacity="1" stop-color="rgb(0.857544%, 74.230957%, 39.775085%)" offset="0.984375"/><stop stop-opacity="1" stop-color="rgb(0.642395%, 74.397278%, 39.535522%)" offset="0.988281"/><stop stop-opacity="1" stop-color="rgb(0.428772%, 74.565125%, 39.297485%)" offset="0.992188"/><stop stop-opacity="1" stop-color="rgb(0.213623%, 74.731445%, 39.057922%)" offset="0.996094"/><stop stop-opacity="1" stop-color="rgb(0%, 74.899292%, 38.819885%)" offset="1"/></linearGradient><clipPath id="6661fdd3b6"><rect x="0" width="384" y="0" height="218"/></clipPath><clipPath id="f7d51fb226"><path d="M 4 0.121094 L 25 0.121094 L 25 29 L 4 29 Z M 4 0.121094 " clip-rule="nonzero"/></clipPath><clipPath id="c27644d32c"><path d="M 26 0.121094 L 35 0.121094 L 35 28 L 26 28 Z M 26 0.121094 " clip-rule="nonzero"/></clipPath><clipPath id="d5dd149be6"><path d="M 74 0.121094 L 83 0.121094 L 83 28 L 74 28 Z M 74 0.121094 " clip-rule="nonzero"/></clipPath><clipPath id="828b449cbd"><path d="M 144 0.121094 L 153 0.121094 L 153 28 L 144 28 Z M 144 0.121094 " clip-rule="nonzero"/></clipPath><clipPath id="8ccac2c9a0"><rect x="0" width="170" y="0" height="138"/></clipPath><clipPath id="418b5899f6"><path d="M 33.164062 70 L 159.855469 70 L 159.855469 159 L 33.164062 159 Z M 33.164062 70 " clip-rule="nonzero"/></clipPath><clipPath id="d565116fc3"><rect x="0" width="384" y="0" height="218"/></clipPath></defs><g transform="matrix(1, 0, 0, 1, 12, 95)"><g clip-path="url(#d565116fc3)"><g clip-path="url(#e4fc7b7637)"><g clip-path="url(#a6543159d2)"><g transform="matrix(1, 0, 0, 1, -0.000000000000003553, -0.000000000000014211)"><g clip-path="url(#6661fdd3b6)"><g clip-path="url(#ef21b5f86b)"><g clip-path="url(#faa52b56be)"><path fill="url(#68d051094d)" d="M 0.675781 0.789062 L 0.675781 217.210938 L 383.320312 217.210938 L 383.320312 0.789062 Z M 0.675781 0.789062 " fill-rule="nonzero"/></g></g></g></g></g></g><g transform="matrix(1, 0, 0, 1, 168, 40)"><g clip-path="url(#8ccac2c9a0)"><g clip-path="url(#f7d51fb226)"><g fill="#f4f6fc" fill-opacity="1"><g transform="translate(1.15493, 27.805896)"><g><path d="M 23.8125 -20.671875 C 23.8125 -20.578125 23.800781 -20.457031 23.78125 -20.3125 C 23.769531 -20.164062 23.726562 -19.890625 23.65625 -19.484375 C 23.375 -17.972656 22.820312 -16.769531 22 -15.875 C 21.1875 -14.988281 20.132812 -14.304688 18.84375 -13.828125 C 19.820312 -13.441406 20.566406 -12.816406 21.078125 -11.953125 C 21.597656 -11.085938 21.859375 -10.128906 21.859375 -9.078125 C 21.859375 -8.910156 21.851562 -8.707031 21.84375 -8.46875 C 21.832031 -8.226562 21.78125 -7.867188 21.6875 -7.390625 C 21.320312 -5.347656 20.59375 -3.773438 19.5 -2.671875 C 18.40625 -1.566406 17.03125 -0.800781 15.375 -0.375 C 13.71875 0.0390625 11.867188 0.25 9.828125 0.25 C 8.648438 0.25 7.550781 0.21875 6.53125 0.15625 C 5.507812 0.101562 4.664062 0.0234375 4 -0.078125 C 3.351562 -0.171875 3.03125 -0.484375 3.03125 -1.015625 C 3.03125 -1.054688 3.03125 -1.113281 3.03125 -1.1875 C 3.03125 -1.257812 3.039062 -1.332031 3.0625 -1.40625 L 7.28125 -25.390625 C 7.414062 -26.160156 7.882812 -26.601562 8.6875 -26.71875 C 9.300781 -26.789062 10.117188 -26.859375 11.140625 -26.921875 C 12.160156 -26.984375 13.257812 -27.015625 14.4375 -27.015625 C 16.195312 -27.015625 17.785156 -26.828125 19.203125 -26.453125 C 20.617188 -26.078125 21.738281 -25.472656 22.5625 -24.640625 C 23.394531 -23.816406 23.8125 -22.710938 23.8125 -21.328125 C 23.8125 -21.222656 23.8125 -21.117188 23.8125 -21.015625 C 23.8125 -20.910156 23.8125 -20.796875 23.8125 -20.671875 Z M 20.53125 -20.59375 C 20.53125 -20.664062 20.53125 -20.734375 20.53125 -20.796875 C 20.53125 -20.859375 20.53125 -20.925781 20.53125 -21 C 20.53125 -21.882812 20.257812 -22.5625 19.71875 -23.03125 C 19.175781 -23.5 18.410156 -23.816406 17.421875 -23.984375 C 16.441406 -24.148438 15.289062 -24.234375 13.96875 -24.234375 C 13.375 -24.234375 12.75 -24.222656 12.09375 -24.203125 C 11.445312 -24.179688 10.875 -24.15625 10.375 -24.125 L 8.78125 -15.203125 L 14.328125 -15.203125 C 15.722656 -15.203125 16.832031 -15.398438 17.65625 -15.796875 C 18.488281 -16.191406 19.113281 -16.71875 19.53125 -17.375 C 19.957031 -18.039062 20.242188 -18.742188 20.390625 -19.484375 C 20.460938 -19.867188 20.503906 -20.125 20.515625 -20.25 C 20.523438 -20.382812 20.53125 -20.5 20.53125 -20.59375 Z M 18.578125 -9.046875 C 18.578125 -10.023438 18.25 -10.851562 17.59375 -11.53125 C 16.9375 -12.21875 15.707031 -12.5625 13.90625 -12.5625 L 8.359375 -12.5625 L 6.59375 -2.671875 C 7.1875 -2.640625 7.796875 -2.601562 8.421875 -2.5625 C 9.046875 -2.53125 9.671875 -2.515625 10.296875 -2.515625 C 11.785156 -2.515625 13.09375 -2.648438 14.21875 -2.921875 C 15.351562 -3.203125 16.28125 -3.691406 17 -4.390625 C 17.71875 -5.085938 18.1875 -6.085938 18.40625 -7.390625 C 18.5 -7.867188 18.550781 -8.21875 18.5625 -8.4375 C 18.570312 -8.664062 18.578125 -8.867188 18.578125 -9.046875 Z M 18.578125 -9.046875 "/></g></g></g></g><g clip-path="url(#c27644d32c)"><g fill="#f4f6fc" fill-opacity="1"><g transform="translate(23.335088, 27.805896)"><g><path d="M 8.359375 -27.296875 L 10.1875 -27.296875 C 10.644531 -27.296875 10.835938 -27.054688 10.765625 -26.578125 L 10.265625 -23.703125 C 10.210938 -23.460938 10.125 -23.28125 10 -23.15625 C 9.882812 -23.039062 9.6875 -22.984375 9.40625 -22.984375 L 7.5625 -22.984375 C 7.300781 -22.984375 7.132812 -23.0625 7.0625 -23.21875 C 6.988281 -23.375 6.960938 -23.535156 6.984375 -23.703125 L 7.484375 -26.578125 C 7.535156 -26.773438 7.625 -26.941406 7.75 -27.078125 C 7.882812 -27.222656 8.085938 -27.296875 8.359375 -27.296875 Z M 7.0625 -19.8125 L 8.78125 -19.8125 C 9 -19.8125 9.160156 -19.757812 9.265625 -19.65625 C 9.378906 -19.5625 9.410156 -19.375 9.359375 -19.09375 L 6.15625 -0.71875 C 6.132812 -0.53125 6.0625 -0.363281 5.9375 -0.21875 C 5.820312 -0.0703125 5.609375 0 5.296875 0 L 3.5625 0 C 3.320312 0 3.160156 -0.078125 3.078125 -0.234375 C 2.992188 -0.390625 2.960938 -0.550781 2.984375 -0.71875 L 6.1875 -19.09375 C 6.238281 -19.425781 6.347656 -19.628906 6.515625 -19.703125 C 6.679688 -19.773438 6.863281 -19.8125 7.0625 -19.8125 Z M 7.0625 -19.8125 "/></g></g></g></g><g fill="#f4f6fc" fill-opacity="1"><g transform="translate(32.228754, 27.805896)"><g><path d="M 19.984375 -13.296875 C 19.984375 -12.984375 19.960938 -12.648438 19.921875 -12.296875 C 19.890625 -11.953125 19.851562 -11.609375 19.8125 -11.265625 L 19.34375 -8.53125 C 18.882812 -5.800781 17.882812 -3.65625 16.34375 -2.09375 C 14.8125 -0.53125 12.617188 0.25 9.765625 0.25 C 7.597656 0.25 5.953125 -0.382812 4.828125 -1.65625 C 3.703125 -2.925781 3.140625 -4.5625 3.140625 -6.5625 C 3.140625 -6.894531 3.15625 -7.222656 3.1875 -7.546875 C 3.21875 -7.867188 3.257812 -8.195312 3.3125 -8.53125 L 3.78125 -11.265625 C 4.789062 -17.128906 7.972656 -20.0625 13.328125 -20.0625 C 15.535156 -20.0625 17.195312 -19.429688 18.3125 -18.171875 C 19.425781 -16.910156 19.984375 -15.285156 19.984375 -13.296875 Z M 16.8125 -13.328125 C 16.8125 -14.617188 16.503906 -15.597656 15.890625 -16.265625 C 15.285156 -16.941406 14.273438 -17.28125 12.859375 -17.28125 C 11.296875 -17.28125 10 -16.738281 8.96875 -15.65625 C 7.9375 -14.582031 7.265625 -13.117188 6.953125 -11.265625 L 6.484375 -8.53125 C 6.335938 -7.738281 6.265625 -7.03125 6.265625 -6.40625 C 6.265625 -5.132812 6.578125 -4.164062 7.203125 -3.5 C 7.828125 -2.84375 8.835938 -2.515625 10.234375 -2.515625 C 11.816406 -2.515625 13.125 -3.078125 14.15625 -4.203125 C 15.1875 -5.335938 15.859375 -6.78125 16.171875 -8.53125 L 16.640625 -11.265625 C 16.710938 -11.648438 16.757812 -12.007812 16.78125 -12.34375 C 16.800781 -12.6875 16.8125 -13.015625 16.8125 -13.328125 Z M 16.8125 -13.328125 "/></g></g></g><g fill="#f4f6fc" fill-opacity="1"><g transform="translate(51.852433, 27.805896)"><g><path d="M 19.984375 -13.359375 C 19.984375 -12.691406 19.910156 -11.972656 19.765625 -11.203125 L 19.484375 -9.6875 C 19.429688 -9.445312 19.351562 -9.253906 19.25 -9.109375 C 19.144531 -8.960938 18.957031 -8.890625 18.6875 -8.890625 L 6.5625 -8.890625 L 6.484375 -8.46875 C 6.335938 -7.644531 6.265625 -6.910156 6.265625 -6.265625 C 6.265625 -4.921875 6.660156 -3.941406 7.453125 -3.328125 C 8.242188 -2.710938 9.335938 -2.40625 10.734375 -2.40625 C 11.785156 -2.40625 12.875 -2.457031 14 -2.5625 C 15.132812 -2.675781 16.125 -2.796875 16.96875 -2.921875 C 17.488281 -2.992188 17.710938 -2.820312 17.640625 -2.40625 L 17.4375 -1.1875 C 17.40625 -0.945312 17.328125 -0.757812 17.203125 -0.625 C 17.085938 -0.5 16.875 -0.410156 16.5625 -0.359375 C 15.507812 -0.171875 14.492188 -0.0234375 13.515625 0.078125 C 12.546875 0.191406 11.460938 0.25 10.265625 0.25 C 9.085938 0.25 7.953125 0.0351562 6.859375 -0.390625 C 5.765625 -0.828125 4.875 -1.535156 4.1875 -2.515625 C 3.507812 -3.503906 3.171875 -4.800781 3.171875 -6.40625 C 3.171875 -7.101562 3.242188 -7.847656 3.390625 -8.640625 L 3.859375 -11.171875 C 4.410156 -14.023438 5.5 -16.21875 7.125 -17.75 C 8.757812 -19.289062 10.847656 -20.0625 13.390625 -20.0625 C 14.878906 -20.0625 16.109375 -19.765625 17.078125 -19.171875 C 18.054688 -18.585938 18.785156 -17.789062 19.265625 -16.78125 C 19.742188 -15.769531 19.984375 -14.628906 19.984375 -13.359375 Z M 16.8125 -13.46875 C 16.8125 -16.007812 15.515625 -17.28125 12.921875 -17.28125 C 11.367188 -17.28125 10.085938 -16.726562 9.078125 -15.625 C 8.066406 -14.519531 7.394531 -13.140625 7.0625 -11.484375 L 7.015625 -11.3125 L 16.5625 -11.3125 L 16.609375 -11.484375 C 16.742188 -12.203125 16.8125 -12.863281 16.8125 -13.46875 Z M 16.8125 -13.46875 "/></g></g></g><g clip-path="url(#d5dd149be6)"><g fill="#f4f6fc" fill-opacity="1"><g transform="translate(71.440112, 27.805896)"><g><path d="M 8.25 -27.078125 L 10.125 -27.078125 C 10.550781 -27.078125 10.71875 -26.851562 10.625 -26.40625 L 6.125 -0.71875 C 6.101562 -0.53125 6.035156 -0.363281 5.921875 -0.21875 C 5.816406 -0.0703125 5.617188 0 5.328125 0 L 3.453125 0 C 3.265625 0 3.128906 -0.078125 3.046875 -0.234375 C 2.960938 -0.390625 2.929688 -0.550781 2.953125 -0.71875 L 7.453125 -26.40625 C 7.503906 -26.59375 7.582031 -26.75 7.6875 -26.875 C 7.789062 -27.007812 7.976562 -27.078125 8.25 -27.078125 Z M 8.25 -27.078125 "/></g></g></g></g><g fill="#f4f6fc" fill-opacity="1"><g transform="translate(80.225758, 27.805896)"><g><path d="M 19.984375 -13.359375 C 19.984375 -12.691406 19.910156 -11.972656 19.765625 -11.203125 L 19.484375 -9.6875 C 19.429688 -9.445312 19.351562 -9.253906 19.25 -9.109375 C 19.144531 -8.960938 18.957031 -8.890625 18.6875 -8.890625 L 6.5625 -8.890625 L 6.484375 -8.46875 C 6.335938 -7.644531 6.265625 -6.910156 6.265625 -6.265625 C 6.265625 -4.921875 6.660156 -3.941406 7.453125 -3.328125 C 8.242188 -2.710938 9.335938 -2.40625 10.734375 -2.40625 C 11.785156 -2.40625 12.875 -2.457031 14 -2.5625 C 15.132812 -2.675781 16.125 -2.796875 16.96875 -2.921875 C 17.488281 -2.992188 17.710938 -2.820312 17.640625 -2.40625 L 17.4375 -1.1875 C 17.40625 -0.945312 17.328125 -0.757812 17.203125 -0.625 C 17.085938 -0.5 16.875 -0.410156 16.5625 -0.359375 C 15.507812 -0.171875 14.492188 -0.0234375 13.515625 0.078125 C 12.546875 0.191406 11.460938 0.25 10.265625 0.25 C 9.085938 0.25 7.953125 0.0351562 6.859375 -0.390625 C 5.765625 -0.828125 4.875 -1.535156 4.1875 -2.515625 C 3.507812 -3.503906 3.171875 -4.800781 3.171875 -6.40625 C 3.171875 -7.101562 3.242188 -7.847656 3.390625 -8.640625 L 3.859375 -11.171875 C 4.410156 -14.023438 5.5 -16.21875 7.125 -17.75 C 8.757812 -19.289062 10.847656 -20.0625 13.390625 -20.0625 C 14.878906 -20.0625 16.109375 -19.765625 17.078125 -19.171875 C 18.054688 -18.585938 18.785156 -17.789062 19.265625 -16.78125 C 19.742188 -15.769531 19.984375 -14.628906 19.984375 -13.359375 Z M 16.8125 -13.46875 C 16.8125 -16.007812 15.515625 -17.28125 12.921875 -17.28125 C 11.367188 -17.28125 10.085938 -16.726562 9.078125 -15.625 C 8.066406 -14.519531 7.394531 -13.140625 7.0625 -11.484375 L 7.015625 -11.3125 L 16.5625 -11.3125 L 16.609375 -11.484375 C 16.742188 -12.203125 16.8125 -12.863281 16.8125 -13.46875 Z M 16.8125 -13.46875 "/></g></g></g><g fill="#f4f6fc" fill-opacity="1"><g transform="translate(99.813437, 27.805896)"><g><path d="M 12.53125 -17.28125 C 11.09375 -17.28125 9.878906 -16.742188 8.890625 -15.671875 C 7.910156 -14.609375 7.265625 -13.15625 6.953125 -11.3125 L 6.484375 -8.5 C 6.335938 -7.6875 6.265625 -6.96875 6.265625 -6.34375 C 6.265625 -4.96875 6.578125 -3.984375 7.203125 -3.390625 C 7.828125 -2.804688 8.726562 -2.515625 9.90625 -2.515625 C 10.789062 -2.515625 11.566406 -2.53125 12.234375 -2.5625 C 12.910156 -2.601562 13.644531 -2.671875 14.4375 -2.765625 C 14.945312 -2.867188 15.164062 -2.691406 15.09375 -2.234375 L 14.875 -0.9375 C 14.800781 -0.5 14.515625 -0.234375 14.015625 -0.140625 C 13.410156 -0.046875 12.707031 0.0390625 11.90625 0.125 C 11.101562 0.207031 10.28125 0.25 9.4375 0.25 C 8.039062 0.25 6.875 -0.0390625 5.9375 -0.625 C 5 -1.21875 4.296875 -2.03125 3.828125 -3.0625 C 3.367188 -4.09375 3.140625 -5.242188 3.140625 -6.515625 C 3.140625 -6.847656 3.15625 -7.175781 3.1875 -7.5 C 3.21875 -7.832031 3.257812 -8.164062 3.3125 -8.5 L 3.78125 -11.3125 C 4.257812 -14.238281 5.296875 -16.425781 6.890625 -17.875 C 8.492188 -19.332031 10.53125 -20.0625 13 -20.0625 C 13.84375 -20.0625 14.644531 -20.023438 15.40625 -19.953125 C 16.175781 -19.878906 16.851562 -19.785156 17.4375 -19.671875 C 17.769531 -19.617188 17.957031 -19.53125 18 -19.40625 C 18.050781 -19.289062 18.050781 -19.113281 18 -18.875 L 17.796875 -17.578125 C 17.765625 -17.378906 17.695312 -17.226562 17.59375 -17.125 C 17.488281 -17.019531 17.265625 -16.988281 16.921875 -17.03125 C 16.160156 -17.125 15.457031 -17.1875 14.8125 -17.21875 C 14.175781 -17.257812 13.414062 -17.28125 12.53125 -17.28125 Z M 12.53125 -17.28125 "/></g></g></g><g fill="#f4f6fc" fill-opacity="1"><g transform="translate(116.08849, 27.805896)"><g><path d="M 9.109375 -19.8125 L 14.734375 -19.8125 C 14.921875 -19.8125 15.070312 -19.769531 15.1875 -19.6875 C 15.3125 -19.601562 15.351562 -19.425781 15.3125 -19.15625 L 15.09375 -17.9375 C 15.0625 -17.769531 14.992188 -17.617188 14.890625 -17.484375 C 14.785156 -17.347656 14.585938 -17.28125 14.296875 -17.28125 L 8.6875 -17.28125 L 6.453125 -4.75 C 6.378906 -4.363281 6.34375 -4.039062 6.34375 -3.78125 C 6.34375 -3.175781 6.523438 -2.78125 6.890625 -2.59375 C 7.265625 -2.40625 7.863281 -2.3125 8.6875 -2.3125 L 11.59375 -2.3125 C 11.863281 -2.3125 12.054688 -2.28125 12.171875 -2.21875 C 12.296875 -2.15625 12.332031 -2.015625 12.28125 -1.796875 L 12.0625 -0.578125 C 12.039062 -0.410156 11.96875 -0.273438 11.84375 -0.171875 C 11.726562 -0.078125 11.523438 -0.0078125 11.234375 0.03125 C 10.898438 0.0820312 10.394531 0.128906 9.71875 0.171875 C 9.050781 0.222656 8.394531 0.25 7.75 0.25 C 6.332031 0.25 5.210938 -0.0625 4.390625 -0.6875 C 3.578125 -1.3125 3.171875 -2.257812 3.171875 -3.53125 C 3.171875 -3.914062 3.207031 -4.320312 3.28125 -4.75 L 6.5625 -23.34375 C 6.601562 -23.53125 6.675781 -23.675781 6.78125 -23.78125 C 6.894531 -23.894531 7.109375 -23.972656 7.421875 -24.015625 L 9.046875 -24.28125 C 9.378906 -24.34375 9.597656 -24.296875 9.703125 -24.140625 C 9.816406 -23.992188 9.847656 -23.820312 9.796875 -23.625 Z M 9.109375 -19.8125 "/></g></g></g><g fill="#f4f6fc" fill-opacity="1"><g transform="translate(128.9429, 27.805896)"><g><path d="M 14.15625 -20.0625 C 14.414062 -20.0625 14.601562 -20.03125 14.71875 -19.96875 C 14.84375 -19.90625 14.882812 -19.753906 14.84375 -19.515625 L 14.515625 -17.859375 C 14.492188 -17.671875 14.429688 -17.523438 14.328125 -17.421875 C 14.234375 -17.328125 14.019531 -17.28125 13.6875 -17.28125 C 12.457031 -17.28125 11.476562 -17.253906 10.75 -17.203125 C 10.019531 -17.160156 9.304688 -17.066406 8.609375 -16.921875 L 5.765625 -0.71875 C 5.734375 -0.53125 5.671875 -0.363281 5.578125 -0.21875 C 5.484375 -0.0703125 5.28125 0 4.96875 0 L 3.09375 0 C 2.851562 0 2.703125 -0.078125 2.640625 -0.234375 C 2.585938 -0.390625 2.570312 -0.550781 2.59375 -0.71875 L 5.65625 -18.21875 C 5.726562 -18.582031 5.992188 -18.859375 6.453125 -19.046875 C 7.554688 -19.503906 8.742188 -19.785156 10.015625 -19.890625 C 11.285156 -20.003906 12.664062 -20.0625 14.15625 -20.0625 Z M 14.15625 -20.0625 "/></g></g></g><g clip-path="url(#828b449cbd)"><g fill="#f4f6fc" fill-opacity="1"><g transform="translate(141.689283, 27.805896)"><g><path d="M 8.359375 -27.296875 L 10.1875 -27.296875 C 10.644531 -27.296875 10.835938 -27.054688 10.765625 -26.578125 L 10.265625 -23.703125 C 10.210938 -23.460938 10.125 -23.28125 10 -23.15625 C 9.882812 -23.039062 9.6875 -22.984375 9.40625 -22.984375 L 7.5625 -22.984375 C 7.300781 -22.984375 7.132812 -23.0625 7.0625 -23.21875 C 6.988281 -23.375 6.960938 -23.535156 6.984375 -23.703125 L 7.484375 -26.578125 C 7.535156 -26.773438 7.625 -26.941406 7.75 -27.078125 C 7.882812 -27.222656 8.085938 -27.296875 8.359375 -27.296875 Z M 7.0625 -19.8125 L 8.78125 -19.8125 C 9 -19.8125 9.160156 -19.757812 9.265625 -19.65625 C 9.378906 -19.5625 9.410156 -19.375 9.359375 -19.09375 L 6.15625 -0.71875 C 6.132812 -0.53125 6.0625 -0.363281 5.9375 -0.21875 C 5.820312 -0.0703125 5.609375 0 5.296875 0 L 3.5625 0 C 3.320312 0 3.160156 -0.078125 3.078125 -0.234375 C 2.992188 -0.390625 2.960938 -0.550781 2.984375 -0.71875 L 6.1875 -19.09375 C 6.238281 -19.425781 6.347656 -19.628906 6.515625 -19.703125 C 6.679688 -19.773438 6.863281 -19.8125 7.0625 -19.8125 Z M 7.0625 -19.8125 "/></g></g></g></g><g fill="#f4f6fc" fill-opacity="1"><g transform="translate(150.582949, 27.805896)"><g><path d="M 12.53125 -17.28125 C 11.09375 -17.28125 9.878906 -16.742188 8.890625 -15.671875 C 7.910156 -14.609375 7.265625 -13.15625 6.953125 -11.3125 L 6.484375 -8.5 C 6.335938 -7.6875 6.265625 -6.96875 6.265625 -6.34375 C 6.265625 -4.96875 6.578125 -3.984375 7.203125 -3.390625 C 7.828125 -2.804688 8.726562 -2.515625 9.90625 -2.515625 C 10.789062 -2.515625 11.566406 -2.53125 12.234375 -2.5625 C 12.910156 -2.601562 13.644531 -2.671875 14.4375 -2.765625 C 14.945312 -2.867188 15.164062 -2.691406 15.09375 -2.234375 L 14.875 -0.9375 C 14.800781 -0.5 14.515625 -0.234375 14.015625 -0.140625 C 13.410156 -0.046875 12.707031 0.0390625 11.90625 0.125 C 11.101562 0.207031 10.28125 0.25 9.4375 0.25 C 8.039062 0.25 6.875 -0.0390625 5.9375 -0.625 C 5 -1.21875 4.296875 -2.03125 3.828125 -3.0625 C 3.367188 -4.09375 3.140625 -5.242188 3.140625 -6.515625 C 3.140625 -6.847656 3.15625 -7.175781 3.1875 -7.5 C 3.21875 -7.832031 3.257812 -8.164062 3.3125 -8.5 L 3.78125 -11.3125 C 4.257812 -14.238281 5.296875 -16.425781 6.890625 -17.875 C 8.492188 -19.332031 10.53125 -20.0625 13 -20.0625 C 13.84375 -20.0625 14.644531 -20.023438 15.40625 -19.953125 C 16.175781 -19.878906 16.851562 -19.785156 17.4375 -19.671875 C 17.769531 -19.617188 17.957031 -19.53125 18 -19.40625 C 18.050781 -19.289062 18.050781 -19.113281 18 -18.875 L 17.796875 -17.578125 C 17.765625 -17.378906 17.695312 -17.226562 17.59375 -17.125 C 17.488281 -17.019531 17.265625 -16.988281 16.921875 -17.03125 C 16.160156 -17.125 15.457031 -17.1875 14.8125 -17.21875 C 14.175781 -17.257812 13.414062 -17.28125 12.53125 -17.28125 Z M 12.53125 -17.28125 "/></g></g></g><g fill="#f4f6fc" fill-opacity="1"><g transform="translate(14.190863, 78.071158)"><g><path d="M 31.984375 -19.953125 C 31.984375 -19.398438 31.945312 -18.804688 31.875 -18.171875 C 31.800781 -17.535156 31.703125 -16.84375 31.578125 -16.09375 L 28.890625 -0.71875 C 28.859375 -0.53125 28.765625 -0.363281 28.609375 -0.21875 C 28.453125 -0.0703125 28.28125 0 28.09375 0 L 26.078125 0 C 25.878906 0 25.738281 -0.078125 25.65625 -0.234375 C 25.570312 -0.390625 25.546875 -0.550781 25.578125 -0.71875 L 28.34375 -16.453125 C 28.582031 -17.753906 28.703125 -18.882812 28.703125 -19.84375 C 28.703125 -21.070312 28.460938 -21.988281 27.984375 -22.59375 C 27.503906 -23.207031 26.75 -23.609375 25.71875 -23.796875 C 24.6875 -23.992188 23.316406 -24.09375 21.609375 -24.09375 L 17.5 -0.71875 C 17.476562 -0.550781 17.390625 -0.390625 17.234375 -0.234375 C 17.078125 -0.078125 16.90625 0 16.71875 0 L 14.734375 0 C 14.535156 0 14.394531 -0.078125 14.3125 -0.234375 C 14.226562 -0.390625 14.195312 -0.550781 14.21875 -0.71875 L 18.328125 -24.09375 C 16.742188 -24.09375 15.414062 -24.007812 14.34375 -23.84375 C 13.28125 -23.675781 12.398438 -23.332031 11.703125 -22.8125 C 11.003906 -22.300781 10.4375 -21.535156 10 -20.515625 C 9.570312 -19.492188 9.21875 -18.140625 8.9375 -16.453125 L 6.15625 -0.71875 C 6.132812 -0.53125 6.046875 -0.363281 5.890625 -0.21875 C 5.734375 -0.0703125 5.554688 0 5.359375 0 L 3.34375 0 C 3.15625 0 3.019531 -0.078125 2.9375 -0.234375 C 2.851562 -0.390625 2.820312 -0.550781 2.84375 -0.71875 L 5.6875 -17 C 6.09375 -19.300781 6.660156 -21.125 7.390625 -22.46875 C 8.128906 -23.8125 9.070312 -24.804688 10.21875 -25.453125 C 11.375 -26.109375 12.796875 -26.53125 14.484375 -26.71875 C 16.179688 -26.914062 18.1875 -27.015625 20.5 -27.015625 C 23.082031 -27.015625 25.226562 -26.832031 26.9375 -26.46875 C 28.644531 -26.113281 29.910156 -25.429688 30.734375 -24.421875 C 31.566406 -23.410156 31.984375 -21.921875 31.984375 -19.953125 Z M 31.984375 -19.953125 "/></g></g></g><g fill="#f4f6fc" fill-opacity="1"><g transform="translate(45.624759, 78.071158)"><g><path d="M 19.984375 -13.359375 C 19.984375 -12.691406 19.910156 -11.972656 19.765625 -11.203125 L 19.484375 -9.6875 C 19.429688 -9.445312 19.351562 -9.253906 19.25 -9.109375 C 19.144531 -8.960938 18.957031 -8.890625 18.6875 -8.890625 L 6.5625 -8.890625 L 6.484375 -8.46875 C 6.335938 -7.644531 6.265625 -6.910156 6.265625 -6.265625 C 6.265625 -4.921875 6.660156 -3.941406 7.453125 -3.328125 C 8.242188 -2.710938 9.335938 -2.40625 10.734375 -2.40625 C 11.785156 -2.40625 12.875 -2.457031 14 -2.5625 C 15.132812 -2.675781 16.125 -2.796875 16.96875 -2.921875 C 17.488281 -2.992188 17.710938 -2.820312 17.640625 -2.40625 L 17.4375 -1.1875 C 17.40625 -0.945312 17.328125 -0.757812 17.203125 -0.625 C 17.085938 -0.5 16.875 -0.410156 16.5625 -0.359375 C 15.507812 -0.171875 14.492188 -0.0234375 13.515625 0.078125 C 12.546875 0.191406 11.460938 0.25 10.265625 0.25 C 9.085938 0.25 7.953125 0.0351562 6.859375 -0.390625 C 5.765625 -0.828125 4.875 -1.535156 4.1875 -2.515625 C 3.507812 -3.503906 3.171875 -4.800781 3.171875 -6.40625 C 3.171875 -7.101562 3.242188 -7.847656 3.390625 -8.640625 L 3.859375 -11.171875 C 4.410156 -14.023438 5.5 -16.21875 7.125 -17.75 C 8.757812 -19.289062 10.847656 -20.0625 13.390625 -20.0625 C 14.878906 -20.0625 16.109375 -19.765625 17.078125 -19.171875 C 18.054688 -18.585938 18.785156 -17.789062 19.265625 -16.78125 C 19.742188 -15.769531 19.984375 -14.628906 19.984375 -13.359375 Z M 16.8125 -13.46875 C 16.8125 -16.007812 15.515625 -17.28125 12.921875 -17.28125 C 11.367188 -17.28125 10.085938 -16.726562 9.078125 -15.625 C 8.066406 -14.519531 7.394531 -13.140625 7.0625 -11.484375 L 7.015625 -11.3125 L 16.5625 -11.3125 L 16.609375 -11.484375 C 16.742188 -12.203125 16.8125 -12.863281 16.8125 -13.46875 Z M 16.8125 -13.46875 "/></g></g></g><g fill="#f4f6fc" fill-opacity="1"><g transform="translate(65.212438, 78.071158)"><g><path d="M 20.3125 -18.65625 C 20.3125 -18.632812 20.304688 -18.597656 20.296875 -18.546875 C 20.285156 -18.492188 20.28125 -18.445312 20.28125 -18.40625 L 17.28125 -1.40625 C 17.257812 -1.164062 17.1875 -0.984375 17.0625 -0.859375 C 16.945312 -0.742188 16.722656 -0.648438 16.390625 -0.578125 C 15.398438 -0.335938 14.296875 -0.140625 13.078125 0.015625 C 11.867188 0.171875 10.710938 0.25 9.609375 0.25 C 7.429688 0.25 5.800781 -0.347656 4.71875 -1.546875 C 3.632812 -2.742188 3.09375 -4.328125 3.09375 -6.296875 C 3.09375 -7.046875 3.164062 -7.828125 3.3125 -8.640625 L 3.78125 -11.171875 C 4.332031 -14.097656 5.328125 -16.3125 6.765625 -17.8125 C 8.210938 -19.3125 10.316406 -20.0625 13.078125 -20.0625 C 14.148438 -20.0625 15.285156 -19.984375 16.484375 -19.828125 C 17.691406 -19.671875 18.753906 -19.472656 19.671875 -19.234375 C 20.097656 -19.140625 20.3125 -18.945312 20.3125 -18.65625 Z M 16.859375 -17.03125 C 16.378906 -17.125 15.757812 -17.207031 15 -17.28125 C 14.238281 -17.351562 13.476562 -17.390625 12.71875 -17.390625 C 10.988281 -17.390625 9.675781 -16.8125 8.78125 -15.65625 C 7.894531 -14.507812 7.285156 -13.015625 6.953125 -11.171875 L 6.484375 -8.640625 C 6.390625 -8.179688 6.316406 -7.734375 6.265625 -7.296875 C 6.210938 -6.867188 6.1875 -6.476562 6.1875 -6.125 C 6.1875 -4.925781 6.476562 -4.003906 7.0625 -3.359375 C 7.65625 -2.722656 8.660156 -2.40625 10.078125 -2.40625 C 10.847656 -2.40625 11.628906 -2.441406 12.421875 -2.515625 C 13.210938 -2.585938 13.863281 -2.671875 14.375 -2.765625 Z M 16.859375 -17.03125 "/></g></g></g><g fill="#f4f6fc" fill-opacity="1"><g transform="translate(84.656089, 78.071158)"><g><path d="M 11.84375 -20.0625 C 12.78125 -20.0625 13.539062 -20.039062 14.125 -20 C 14.71875 -19.96875 15.242188 -19.921875 15.703125 -19.859375 C 16.160156 -19.796875 16.640625 -19.707031 17.140625 -19.59375 C 17.410156 -19.539062 17.578125 -19.472656 17.640625 -19.390625 C 17.710938 -19.304688 17.726562 -19.132812 17.6875 -18.875 L 17.5 -17.6875 C 17.425781 -17.207031 17.148438 -17.003906 16.671875 -17.078125 C 16.078125 -17.140625 15.296875 -17.203125 14.328125 -17.265625 C 13.367188 -17.328125 12.382812 -17.359375 11.375 -17.359375 C 10.820312 -17.359375 10.25 -17.289062 9.65625 -17.15625 C 9.070312 -17.03125 8.582031 -16.78125 8.1875 -16.40625 C 7.789062 -16.03125 7.59375 -15.492188 7.59375 -14.796875 C 7.59375 -14.347656 7.765625 -13.941406 8.109375 -13.578125 C 8.460938 -13.210938 8.941406 -12.828125 9.546875 -12.421875 L 12.75 -10.296875 C 14 -9.484375 14.84375 -8.71875 15.28125 -8 C 15.726562 -7.28125 15.953125 -6.4375 15.953125 -5.46875 C 15.953125 -4.050781 15.578125 -2.921875 14.828125 -2.078125 C 14.085938 -1.242188 13.128906 -0.644531 11.953125 -0.28125 C 10.773438 0.0703125 9.53125 0.25 8.21875 0.25 C 7.707031 0.25 7.113281 0.226562 6.4375 0.1875 C 5.769531 0.15625 5.09375 0.0976562 4.40625 0.015625 C 3.726562 -0.0664062 3.125 -0.164062 2.59375 -0.28125 C 2.425781 -0.332031 2.273438 -0.414062 2.140625 -0.53125 C 2.003906 -0.65625 1.953125 -0.816406 1.984375 -1.015625 L 2.203125 -2.265625 C 2.242188 -2.503906 2.320312 -2.664062 2.4375 -2.75 C 2.5625 -2.832031 2.78125 -2.851562 3.09375 -2.8125 C 3.675781 -2.738281 4.3125 -2.671875 5 -2.609375 C 5.695312 -2.546875 6.375 -2.492188 7.03125 -2.453125 C 7.695312 -2.421875 8.25 -2.40625 8.6875 -2.40625 C 9.738281 -2.40625 10.675781 -2.628906 11.5 -3.078125 C 12.332031 -3.523438 12.75 -4.320312 12.75 -5.46875 C 12.75 -5.882812 12.609375 -6.28125 12.328125 -6.65625 C 12.054688 -7.039062 11.5 -7.5 10.65625 -8.03125 L 7.421875 -10.15625 C 6.429688 -10.800781 5.675781 -11.5 5.15625 -12.25 C 4.644531 -13.007812 4.390625 -13.875 4.390625 -14.84375 C 4.390625 -16.1875 4.757812 -17.234375 5.5 -17.984375 C 6.25 -18.742188 7.191406 -19.28125 8.328125 -19.59375 C 9.472656 -19.90625 10.644531 -20.0625 11.84375 -20.0625 Z M 11.84375 -20.0625 "/></g></g></g><g fill="#f4f6fc" fill-opacity="1"><g transform="translate(101.435235, 78.071158)"><g><path d="M 20.96875 -19.234375 C 20.96875 -19.210938 20.96875 -19.1875 20.96875 -19.15625 C 20.96875 -19.132812 20.96875 -19.113281 20.96875 -19.09375 L 19.046875 -8.21875 C 18.734375 -6.4375 18.25 -4.992188 17.59375 -3.890625 C 16.9375 -2.785156 16.179688 -1.929688 15.328125 -1.328125 C 14.472656 -0.734375 13.597656 -0.320312 12.703125 -0.09375 C 11.816406 0.132812 10.992188 0.25 10.234375 0.25 L 9.90625 0.25 C 9.375 0.25 8.753906 0.148438 8.046875 -0.046875 C 7.335938 -0.253906 6.660156 -0.597656 6.015625 -1.078125 C 5.367188 -1.554688 4.828125 -2.226562 4.390625 -3.09375 C 3.960938 -3.957031 3.75 -5.050781 3.75 -6.375 C 3.75 -7.070312 3.820312 -7.828125 3.96875 -8.640625 L 5.796875 -19.09375 C 5.847656 -19.28125 5.941406 -19.445312 6.078125 -19.59375 C 6.222656 -19.738281 6.394531 -19.8125 6.59375 -19.8125 L 8.46875 -19.8125 C 8.65625 -19.8125 8.785156 -19.75 8.859375 -19.625 C 8.929688 -19.507812 8.96875 -19.378906 8.96875 -19.234375 C 8.96875 -19.210938 8.96875 -19.1875 8.96875 -19.15625 C 8.96875 -19.132812 8.96875 -19.113281 8.96875 -19.09375 L 7.0625 -8.21875 C 6.988281 -7.851562 6.9375 -7.507812 6.90625 -7.1875 C 6.882812 -6.863281 6.875 -6.554688 6.875 -6.265625 C 6.875 -4.847656 7.203125 -3.867188 7.859375 -3.328125 C 8.523438 -2.785156 9.363281 -2.515625 10.375 -2.515625 L 10.703125 -2.515625 C 11.941406 -2.515625 13.019531 -2.9375 13.9375 -3.78125 C 14.851562 -4.625 15.503906 -6.101562 15.890625 -8.21875 L 17.796875 -19.09375 C 17.835938 -19.28125 17.929688 -19.445312 18.078125 -19.59375 C 18.222656 -19.738281 18.390625 -19.8125 18.578125 -19.8125 L 20.453125 -19.8125 C 20.648438 -19.8125 20.785156 -19.75 20.859375 -19.625 C 20.929688 -19.507812 20.96875 -19.378906 20.96875 -19.234375 Z M 20.96875 -19.234375 "/></g></g></g><g fill="#f4f6fc" fill-opacity="1"><g transform="translate(121.490997, 78.071158)"><g><path d="M 14.15625 -20.0625 C 14.414062 -20.0625 14.601562 -20.03125 14.71875 -19.96875 C 14.84375 -19.90625 14.882812 -19.753906 14.84375 -19.515625 L 14.515625 -17.859375 C 14.492188 -17.671875 14.429688 -17.523438 14.328125 -17.421875 C 14.234375 -17.328125 14.019531 -17.28125 13.6875 -17.28125 C 12.457031 -17.28125 11.476562 -17.253906 10.75 -17.203125 C 10.019531 -17.160156 9.304688 -17.066406 8.609375 -16.921875 L 5.765625 -0.71875 C 5.734375 -0.53125 5.671875 -0.363281 5.578125 -0.21875 C 5.484375 -0.0703125 5.28125 0 4.96875 0 L 3.09375 0 C 2.851562 0 2.703125 -0.078125 2.640625 -0.234375 C 2.585938 -0.390625 2.570312 -0.550781 2.59375 -0.71875 L 5.65625 -18.21875 C 5.726562 -18.582031 5.992188 -18.859375 6.453125 -19.046875 C 7.554688 -19.503906 8.742188 -19.785156 10.015625 -19.890625 C 11.285156 -20.003906 12.664062 -20.0625 14.15625 -20.0625 Z M 14.15625 -20.0625 "/></g></g></g><g fill="#f4f6fc" fill-opacity="1"><g transform="translate(134.237388, 78.071158)"><g><path d="M 19.984375 -13.359375 C 19.984375 -12.691406 19.910156 -11.972656 19.765625 -11.203125 L 19.484375 -9.6875 C 19.429688 -9.445312 19.351562 -9.253906 19.25 -9.109375 C 19.144531 -8.960938 18.957031 -8.890625 18.6875 -8.890625 L 6.5625 -8.890625 L 6.484375 -8.46875 C 6.335938 -7.644531 6.265625 -6.910156 6.265625 -6.265625 C 6.265625 -4.921875 6.660156 -3.941406 7.453125 -3.328125 C 8.242188 -2.710938 9.335938 -2.40625 10.734375 -2.40625 C 11.785156 -2.40625 12.875 -2.457031 14 -2.5625 C 15.132812 -2.675781 16.125 -2.796875 16.96875 -2.921875 C 17.488281 -2.992188 17.710938 -2.820312 17.640625 -2.40625 L 17.4375 -1.1875 C 17.40625 -0.945312 17.328125 -0.757812 17.203125 -0.625 C 17.085938 -0.5 16.875 -0.410156 16.5625 -0.359375 C 15.507812 -0.171875 14.492188 -0.0234375 13.515625 0.078125 C 12.546875 0.191406 11.460938 0.25 10.265625 0.25 C 9.085938 0.25 7.953125 0.0351562 6.859375 -0.390625 C 5.765625 -0.828125 4.875 -1.535156 4.1875 -2.515625 C 3.507812 -3.503906 3.171875 -4.800781 3.171875 -6.40625 C 3.171875 -7.101562 3.242188 -7.847656 3.390625 -8.640625 L 3.859375 -11.171875 C 4.410156 -14.023438 5.5 -16.21875 7.125 -17.75 C 8.757812 -19.289062 10.847656 -20.0625 13.390625 -20.0625 C 14.878906 -20.0625 16.109375 -19.765625 17.078125 -19.171875 C 18.054688 -18.585938 18.785156 -17.789062 19.265625 -16.78125 C 19.742188 -15.769531 19.984375 -14.628906 19.984375 -13.359375 Z M 16.8125 -13.46875 C 16.8125 -16.007812 15.515625 -17.28125 12.921875 -17.28125 C 11.367188 -17.28125 10.085938 -16.726562 9.078125 -15.625 C 8.066406 -14.519531 7.394531 -13.140625 7.0625 -11.484375 L 7.015625 -11.3125 L 16.5625 -11.3125 L 16.609375 -11.484375 C 16.742188 -12.203125 16.8125 -12.863281 16.8125 -13.46875 Z M 16.8125 -13.46875 "/></g></g></g><g fill="#f4f6fc" fill-opacity="1"><g transform="translate(16.708985, 128.336419)"><g><path d="M 14.625 -27.015625 C 15.34375 -27.015625 16.140625 -26.992188 17.015625 -26.953125 C 17.890625 -26.921875 18.722656 -26.867188 19.515625 -26.796875 C 20.304688 -26.722656 20.921875 -26.648438 21.359375 -26.578125 C 21.597656 -26.554688 21.753906 -26.503906 21.828125 -26.421875 C 21.898438 -26.335938 21.910156 -26.1875 21.859375 -25.96875 L 21.609375 -24.421875 C 21.585938 -24.203125 21.523438 -24.046875 21.421875 -23.953125 C 21.328125 -23.859375 21.125 -23.820312 20.8125 -23.84375 C 20.019531 -23.894531 19.050781 -23.941406 17.90625 -23.984375 C 16.769531 -24.035156 15.675781 -24.0625 14.625 -24.0625 C 13.664062 -24.0625 12.722656 -23.972656 11.796875 -23.796875 C 10.867188 -23.628906 10.109375 -23.28125 9.515625 -22.75 C 8.929688 -22.226562 8.640625 -21.441406 8.640625 -20.390625 C 8.640625 -19.523438 8.878906 -18.804688 9.359375 -18.234375 C 9.835938 -17.671875 10.664062 -16.992188 11.84375 -16.203125 L 14.796875 -14.21875 C 16.484375 -13.113281 17.660156 -12.039062 18.328125 -11 C 19.003906 -9.957031 19.34375 -8.773438 19.34375 -7.453125 C 19.34375 -5.773438 18.90625 -4.359375 18.03125 -3.203125 C 17.15625 -2.054688 15.957031 -1.191406 14.4375 -0.609375 C 12.925781 -0.0351562 11.210938 0.25 9.296875 0.25 C 8.304688 0.25 7.226562 0.191406 6.0625 0.078125 C 4.90625 -0.0234375 3.941406 -0.132812 3.171875 -0.25 C 2.734375 -0.320312 2.539062 -0.539062 2.59375 -0.90625 L 2.84375 -2.34375 C 2.894531 -2.601562 2.96875 -2.773438 3.0625 -2.859375 C 3.15625 -2.941406 3.359375 -2.960938 3.671875 -2.921875 C 4.222656 -2.867188 4.851562 -2.820312 5.5625 -2.78125 C 6.269531 -2.75 6.976562 -2.726562 7.6875 -2.71875 C 8.394531 -2.707031 9.023438 -2.703125 9.578125 -2.703125 C 11.523438 -2.703125 13.0625 -3.066406 14.1875 -3.796875 C 15.320312 -4.523438 15.890625 -5.742188 15.890625 -7.453125 C 15.890625 -8.316406 15.628906 -9.035156 15.109375 -9.609375 C 14.585938 -10.191406 13.691406 -10.914062 12.421875 -11.78125 L 9.296875 -13.90625 C 8.066406 -14.738281 7.101562 -15.671875 6.40625 -16.703125 C 5.707031 -17.742188 5.359375 -18.910156 5.359375 -20.203125 C 5.359375 -21.878906 5.789062 -23.207031 6.65625 -24.1875 C 7.519531 -25.175781 8.65625 -25.894531 10.0625 -26.34375 C 11.46875 -26.789062 12.988281 -27.015625 14.625 -27.015625 Z M 14.625 -27.015625 "/></g></g></g><g fill="#f4f6fc" fill-opacity="1"><g transform="translate(36.5127, 128.336419)"><g><path d="M 18.65625 -19.8125 L 20.390625 -19.8125 C 20.578125 -19.8125 20.726562 -19.753906 20.84375 -19.640625 C 20.96875 -19.535156 21.007812 -19.351562 20.96875 -19.09375 L 17.609375 0 C 17.296875 1.875 16.816406 3.328125 16.171875 4.359375 C 15.523438 5.390625 14.628906 6.109375 13.484375 6.515625 C 12.347656 6.921875 10.851562 7.125 9 7.125 C 7.675781 7.125 6.472656 7.046875 5.390625 6.890625 C 4.316406 6.734375 3.578125 6.609375 3.171875 6.515625 C 2.972656 6.472656 2.828125 6.394531 2.734375 6.28125 C 2.640625 6.175781 2.601562 6.003906 2.625 5.765625 L 2.8125 4.75 C 2.851562 4.5625 2.925781 4.398438 3.03125 4.265625 C 3.144531 4.128906 3.359375 4.085938 3.671875 4.140625 C 4.035156 4.191406 4.535156 4.253906 5.171875 4.328125 C 5.804688 4.398438 6.503906 4.457031 7.265625 4.5 C 8.035156 4.550781 8.769531 4.578125 9.46875 4.578125 C 10.53125 4.578125 11.382812 4.460938 12.03125 4.234375 C 12.675781 4.003906 13.191406 3.554688 13.578125 2.890625 C 13.960938 2.234375 14.273438 1.269531 14.515625 0 L 14.546875 -0.1875 C 14.085938 -0.0625 13.4375 0.0390625 12.59375 0.125 C 11.757812 0.207031 11.054688 0.25 10.484375 0.25 C 9.234375 0.25 8.082031 0.0664062 7.03125 -0.296875 C 5.988281 -0.671875 5.148438 -1.28125 4.515625 -2.125 C 3.878906 -2.96875 3.5625 -4.082031 3.5625 -5.46875 C 3.5625 -5.738281 3.570312 -6.015625 3.59375 -6.296875 C 3.625 -6.585938 3.660156 -6.890625 3.703125 -7.203125 L 5.796875 -19.09375 C 5.847656 -19.28125 5.925781 -19.445312 6.03125 -19.59375 C 6.132812 -19.738281 6.34375 -19.8125 6.65625 -19.8125 L 8.390625 -19.8125 C 8.585938 -19.8125 8.742188 -19.757812 8.859375 -19.65625 C 8.984375 -19.5625 9.019531 -19.375 8.96875 -19.09375 L 6.875 -7.203125 C 6.832031 -6.890625 6.789062 -6.585938 6.75 -6.296875 C 6.71875 -6.015625 6.703125 -5.753906 6.703125 -5.515625 C 6.703125 -4.234375 7.070312 -3.398438 7.8125 -3.015625 C 8.5625 -2.640625 9.609375 -2.453125 10.953125 -2.453125 C 11.472656 -2.453125 12.132812 -2.5 12.9375 -2.59375 C 13.75 -2.6875 14.421875 -2.796875 14.953125 -2.921875 L 17.796875 -19.09375 C 17.835938 -19.28125 17.914062 -19.445312 18.03125 -19.59375 C 18.15625 -19.738281 18.363281 -19.8125 18.65625 -19.8125 Z M 18.65625 -19.8125 "/></g></g></g><g fill="#f4f6fc" fill-opacity="1"><g transform="translate(56.568462, 128.336419)"><g><path d="M 11.84375 -20.0625 C 12.78125 -20.0625 13.539062 -20.039062 14.125 -20 C 14.71875 -19.96875 15.242188 -19.921875 15.703125 -19.859375 C 16.160156 -19.796875 16.640625 -19.707031 17.140625 -19.59375 C 17.410156 -19.539062 17.578125 -19.472656 17.640625 -19.390625 C 17.710938 -19.304688 17.726562 -19.132812 17.6875 -18.875 L 17.5 -17.6875 C 17.425781 -17.207031 17.148438 -17.003906 16.671875 -17.078125 C 16.078125 -17.140625 15.296875 -17.203125 14.328125 -17.265625 C 13.367188 -17.328125 12.382812 -17.359375 11.375 -17.359375 C 10.820312 -17.359375 10.25 -17.289062 9.65625 -17.15625 C 9.070312 -17.03125 8.582031 -16.78125 8.1875 -16.40625 C 7.789062 -16.03125 7.59375 -15.492188 7.59375 -14.796875 C 7.59375 -14.347656 7.765625 -13.941406 8.109375 -13.578125 C 8.460938 -13.210938 8.941406 -12.828125 9.546875 -12.421875 L 12.75 -10.296875 C 14 -9.484375 14.84375 -8.71875 15.28125 -8 C 15.726562 -7.28125 15.953125 -6.4375 15.953125 -5.46875 C 15.953125 -4.050781 15.578125 -2.921875 14.828125 -2.078125 C 14.085938 -1.242188 13.128906 -0.644531 11.953125 -0.28125 C 10.773438 0.0703125 9.53125 0.25 8.21875 0.25 C 7.707031 0.25 7.113281 0.226562 6.4375 0.1875 C 5.769531 0.15625 5.09375 0.0976562 4.40625 0.015625 C 3.726562 -0.0664062 3.125 -0.164062 2.59375 -0.28125 C 2.425781 -0.332031 2.273438 -0.414062 2.140625 -0.53125 C 2.003906 -0.65625 1.953125 -0.816406 1.984375 -1.015625 L 2.203125 -2.265625 C 2.242188 -2.503906 2.320312 -2.664062 2.4375 -2.75 C 2.5625 -2.832031 2.78125 -2.851562 3.09375 -2.8125 C 3.675781 -2.738281 4.3125 -2.671875 5 -2.609375 C 5.695312 -2.546875 6.375 -2.492188 7.03125 -2.453125 C 7.695312 -2.421875 8.25 -2.40625 8.6875 -2.40625 C 9.738281 -2.40625 10.675781 -2.628906 11.5 -3.078125 C 12.332031 -3.523438 12.75 -4.320312 12.75 -5.46875 C 12.75 -5.882812 12.609375 -6.28125 12.328125 -6.65625 C 12.054688 -7.039062 11.5 -7.5 10.65625 -8.03125 L 7.421875 -10.15625 C 6.429688 -10.800781 5.675781 -11.5 5.15625 -12.25 C 4.644531 -13.007812 4.390625 -13.875 4.390625 -14.84375 C 4.390625 -16.1875 4.757812 -17.234375 5.5 -17.984375 C 6.25 -18.742188 7.191406 -19.28125 8.328125 -19.59375 C 9.472656 -19.90625 10.644531 -20.0625 11.84375 -20.0625 Z M 11.84375 -20.0625 "/></g></g></g><g fill="#f4f6fc" fill-opacity="1"><g transform="translate(73.347608, 128.336419)"><g><path d="M 9.109375 -19.8125 L 14.734375 -19.8125 C 14.921875 -19.8125 15.070312 -19.769531 15.1875 -19.6875 C 15.3125 -19.601562 15.351562 -19.425781 15.3125 -19.15625 L 15.09375 -17.9375 C 15.0625 -17.769531 14.992188 -17.617188 14.890625 -17.484375 C 14.785156 -17.347656 14.585938 -17.28125 14.296875 -17.28125 L 8.6875 -17.28125 L 6.453125 -4.75 C 6.378906 -4.363281 6.34375 -4.039062 6.34375 -3.78125 C 6.34375 -3.175781 6.523438 -2.78125 6.890625 -2.59375 C 7.265625 -2.40625 7.863281 -2.3125 8.6875 -2.3125 L 11.59375 -2.3125 C 11.863281 -2.3125 12.054688 -2.28125 12.171875 -2.21875 C 12.296875 -2.15625 12.332031 -2.015625 12.28125 -1.796875 L 12.0625 -0.578125 C 12.039062 -0.410156 11.96875 -0.273438 11.84375 -0.171875 C 11.726562 -0.078125 11.523438 -0.0078125 11.234375 0.03125 C 10.898438 0.0820312 10.394531 0.128906 9.71875 0.171875 C 9.050781 0.222656 8.394531 0.25 7.75 0.25 C 6.332031 0.25 5.210938 -0.0625 4.390625 -0.6875 C 3.578125 -1.3125 3.171875 -2.257812 3.171875 -3.53125 C 3.171875 -3.914062 3.207031 -4.320312 3.28125 -4.75 L 6.5625 -23.34375 C 6.601562 -23.53125 6.675781 -23.675781 6.78125 -23.78125 C 6.894531 -23.894531 7.109375 -23.972656 7.421875 -24.015625 L 9.046875 -24.28125 C 9.378906 -24.34375 9.597656 -24.296875 9.703125 -24.140625 C 9.816406 -23.992188 9.847656 -23.820312 9.796875 -23.625 Z M 9.109375 -19.8125 "/></g></g></g><g fill="#f4f6fc" fill-opacity="1"><g transform="translate(86.202018, 128.336419)"><g><path d="M 19.984375 -13.359375 C 19.984375 -12.691406 19.910156 -11.972656 19.765625 -11.203125 L 19.484375 -9.6875 C 19.429688 -9.445312 19.351562 -9.253906 19.25 -9.109375 C 19.144531 -8.960938 18.957031 -8.890625 18.6875 -8.890625 L 6.5625 -8.890625 L 6.484375 -8.46875 C 6.335938 -7.644531 6.265625 -6.910156 6.265625 -6.265625 C 6.265625 -4.921875 6.660156 -3.941406 7.453125 -3.328125 C 8.242188 -2.710938 9.335938 -2.40625 10.734375 -2.40625 C 11.785156 -2.40625 12.875 -2.457031 14 -2.5625 C 15.132812 -2.675781 16.125 -2.796875 16.96875 -2.921875 C 17.488281 -2.992188 17.710938 -2.820312 17.640625 -2.40625 L 17.4375 -1.1875 C 17.40625 -0.945312 17.328125 -0.757812 17.203125 -0.625 C 17.085938 -0.5 16.875 -0.410156 16.5625 -0.359375 C 15.507812 -0.171875 14.492188 -0.0234375 13.515625 0.078125 C 12.546875 0.191406 11.460938 0.25 10.265625 0.25 C 9.085938 0.25 7.953125 0.0351562 6.859375 -0.390625 C 5.765625 -0.828125 4.875 -1.535156 4.1875 -2.515625 C 3.507812 -3.503906 3.171875 -4.800781 3.171875 -6.40625 C 3.171875 -7.101562 3.242188 -7.847656 3.390625 -8.640625 L 3.859375 -11.171875 C 4.410156 -14.023438 5.5 -16.21875 7.125 -17.75 C 8.757812 -19.289062 10.847656 -20.0625 13.390625 -20.0625 C 14.878906 -20.0625 16.109375 -19.765625 17.078125 -19.171875 C 18.054688 -18.585938 18.785156 -17.789062 19.265625 -16.78125 C 19.742188 -15.769531 19.984375 -14.628906 19.984375 -13.359375 Z M 16.8125 -13.46875 C 16.8125 -16.007812 15.515625 -17.28125 12.921875 -17.28125 C 11.367188 -17.28125 10.085938 -16.726562 9.078125 -15.625 C 8.066406 -14.519531 7.394531 -13.140625 7.0625 -11.484375 L 7.015625 -11.3125 L 16.5625 -11.3125 L 16.609375 -11.484375 C 16.742188 -12.203125 16.8125 -12.863281 16.8125 -13.46875 Z M 16.8125 -13.46875 "/></g></g></g><g fill="#f4f6fc" fill-opacity="1"><g transform="translate(105.789697, 128.336419)"><g><path d="M 28.890625 -15.046875 C 28.890625 -14.785156 28.875 -14.515625 28.84375 -14.234375 C 28.820312 -13.960938 28.785156 -13.679688 28.734375 -13.390625 L 26.5 -0.71875 C 26.476562 -0.53125 26.390625 -0.363281 26.234375 -0.21875 C 26.078125 -0.0703125 25.90625 0 25.71875 0 L 23.84375 0 C 23.675781 0 23.550781 -0.0546875 23.46875 -0.171875 C 23.382812 -0.296875 23.34375 -0.429688 23.34375 -0.578125 C 23.34375 -0.597656 23.34375 -0.617188 23.34375 -0.640625 C 23.34375 -0.671875 23.34375 -0.695312 23.34375 -0.71875 L 25.609375 -13.765625 C 25.648438 -14.023438 25.679688 -14.253906 25.703125 -14.453125 C 25.734375 -14.660156 25.75 -14.847656 25.75 -15.015625 C 25.75 -16.003906 25.488281 -16.628906 24.96875 -16.890625 C 24.457031 -17.148438 23.804688 -17.28125 23.015625 -17.28125 L 22.1875 -17.28125 C 21.03125 -17.28125 20.195312 -17.128906 19.6875 -16.828125 C 19.1875 -16.535156 18.84375 -15.875 18.65625 -14.84375 L 16.171875 -0.71875 C 16.148438 -0.53125 16.0625 -0.363281 15.90625 -0.21875 C 15.75 -0.0703125 15.570312 0 15.375 0 L 13.5 0 C 13.332031 0 13.207031 -0.0546875 13.125 -0.171875 C 13.039062 -0.296875 13 -0.429688 13 -0.578125 C 13 -0.597656 13 -0.617188 13 -0.640625 C 13 -0.671875 13 -0.695312 13 -0.71875 L 15.484375 -14.84375 C 15.535156 -15.007812 15.5625 -15.160156 15.5625 -15.296875 C 15.5625 -15.441406 15.5625 -15.578125 15.5625 -15.703125 C 15.5625 -16.398438 15.332031 -16.835938 14.875 -17.015625 C 14.414062 -17.191406 13.734375 -17.28125 12.828125 -17.28125 L 12 -17.28125 C 11.375 -17.28125 10.800781 -17.203125 10.28125 -17.046875 C 9.769531 -16.890625 9.328125 -16.5625 8.953125 -16.0625 C 8.578125 -15.5625 8.296875 -14.796875 8.109375 -13.765625 L 5.828125 -0.71875 C 5.804688 -0.53125 5.71875 -0.363281 5.5625 -0.21875 C 5.40625 -0.0703125 5.234375 0 5.046875 0 L 3.171875 0 C 3.003906 0 2.878906 -0.0546875 2.796875 -0.171875 C 2.710938 -0.296875 2.671875 -0.429688 2.671875 -0.578125 C 2.671875 -0.597656 2.671875 -0.617188 2.671875 -0.640625 C 2.671875 -0.671875 2.671875 -0.695312 2.671875 -0.71875 L 5 -14.078125 C 5.363281 -16.140625 6.15625 -17.648438 7.375 -18.609375 C 8.601562 -19.578125 10.300781 -20.0625 12.46875 -20.0625 L 13.296875 -20.0625 C 14.347656 -20.0625 15.222656 -19.945312 15.921875 -19.71875 C 16.617188 -19.488281 17.191406 -19.144531 17.640625 -18.6875 C 18.296875 -19.164062 19.03125 -19.515625 19.84375 -19.734375 C 20.65625 -19.953125 21.59375 -20.0625 22.65625 -20.0625 L 23.484375 -20.0625 C 25.359375 -20.0625 26.726562 -19.597656 27.59375 -18.671875 C 28.457031 -17.742188 28.890625 -16.535156 28.890625 -15.046875 Z M 28.890625 -15.046875 "/></g></g></g><g fill="#f4f6fc" fill-opacity="1"><g transform="translate(134.523086, 128.336419)"><g><path d="M 11.84375 -20.0625 C 12.78125 -20.0625 13.539062 -20.039062 14.125 -20 C 14.71875 -19.96875 15.242188 -19.921875 15.703125 -19.859375 C 16.160156 -19.796875 16.640625 -19.707031 17.140625 -19.59375 C 17.410156 -19.539062 17.578125 -19.472656 17.640625 -19.390625 C 17.710938 -19.304688 17.726562 -19.132812 17.6875 -18.875 L 17.5 -17.6875 C 17.425781 -17.207031 17.148438 -17.003906 16.671875 -17.078125 C 16.078125 -17.140625 15.296875 -17.203125 14.328125 -17.265625 C 13.367188 -17.328125 12.382812 -17.359375 11.375 -17.359375 C 10.820312 -17.359375 10.25 -17.289062 9.65625 -17.15625 C 9.070312 -17.03125 8.582031 -16.78125 8.1875 -16.40625 C 7.789062 -16.03125 7.59375 -15.492188 7.59375 -14.796875 C 7.59375 -14.347656 7.765625 -13.941406 8.109375 -13.578125 C 8.460938 -13.210938 8.941406 -12.828125 9.546875 -12.421875 L 12.75 -10.296875 C 14 -9.484375 14.84375 -8.71875 15.28125 -8 C 15.726562 -7.28125 15.953125 -6.4375 15.953125 -5.46875 C 15.953125 -4.050781 15.578125 -2.921875 14.828125 -2.078125 C 14.085938 -1.242188 13.128906 -0.644531 11.953125 -0.28125 C 10.773438 0.0703125 9.53125 0.25 8.21875 0.25 C 7.707031 0.25 7.113281 0.226562 6.4375 0.1875 C 5.769531 0.15625 5.09375 0.0976562 4.40625 0.015625 C 3.726562 -0.0664062 3.125 -0.164062 2.59375 -0.28125 C 2.425781 -0.332031 2.273438 -0.414062 2.140625 -0.53125 C 2.003906 -0.65625 1.953125 -0.816406 1.984375 -1.015625 L 2.203125 -2.265625 C 2.242188 -2.503906 2.320312 -2.664062 2.4375 -2.75 C 2.5625 -2.832031 2.78125 -2.851562 3.09375 -2.8125 C 3.675781 -2.738281 4.3125 -2.671875 5 -2.609375 C 5.695312 -2.546875 6.375 -2.492188 7.03125 -2.453125 C 7.695312 -2.421875 8.25 -2.40625 8.6875 -2.40625 C 9.738281 -2.40625 10.675781 -2.628906 11.5 -3.078125 C 12.332031 -3.523438 12.75 -4.320312 12.75 -5.46875 C 12.75 -5.882812 12.609375 -6.28125 12.328125 -6.65625 C 12.054688 -7.039062 11.5 -7.5 10.65625 -8.03125 L 7.421875 -10.15625 C 6.429688 -10.800781 5.675781 -11.5 5.15625 -12.25 C 4.644531 -13.007812 4.390625 -13.875 4.390625 -14.84375 C 4.390625 -16.1875 4.757812 -17.234375 5.5 -17.984375 C 6.25 -18.742188 7.191406 -19.28125 8.328125 -19.59375 C 9.472656 -19.90625 10.644531 -20.0625 11.84375 -20.0625 Z M 11.84375 -20.0625 "/></g></g></g></g></g><g clip-path="url(#418b5899f6)"><path fill="#ffffff" d="M 159.230469 108.839844 C 157.542969 107.214844 155.75 105.695312 153.230469 105.679688 C 151.363281 105.664062 149.476562 105.894531 147.625 105.726562 C 143.480469 105.363281 139.667969 103.765625 135.792969 102.371094 C 132.117188 101.03125 128.488281 99.453125 124.464844 99.515625 C 122.035156 99.558594 119.921875 98.722656 117.855469 97.617188 C 115.714844 96.476562 113.574219 95.351562 111.433594 94.242188 C 109.289062 93.121094 107.132812 92.832031 104.960938 94.214844 C 104.613281 94.441406 104.25 94.789062 103.625 94.59375 C 104.21875 94.199219 104.765625 93.910156 105.234375 93.515625 C 107.132812 91.933594 109.078125 91.375 111.203125 93.105469 C 111.476562 93.316406 111.886719 93.347656 112.191406 93.515625 C 113.132812 94.046875 113.921875 93.636719 114.304688 92.890625 C 114.804688 91.875 115.777344 91.144531 116.050781 90.007812 C 116.140625 89.625 116.230469 89.308594 116.734375 89.367188 C 118.207031 89.582031 118.101562 88.625 117.871094 87.699219 C 117.492188 86.117188 117.308594 84.628906 118.328125 83.15625 C 119.148438 81.988281 119.054688 80.574219 118.8125 79.238281 C 118.722656 78.691406 118.796875 78.570312 119.269531 78.386719 C 121.609375 77.476562 120.832031 76.792969 119.769531 75.488281 C 117.660156 72.90625 114.863281 71.324219 111.613281 70.792969 C 106.617188 69.972656 102.289062 72.722656 101.679688 77.902344 C 101.515625 79.3125 101.621094 80.695312 101.605469 82.09375 C 101.589844 83.261719 101.027344 83.992188 99.949219 84.476562 C 98.902344 84.964844 98.019531 84.765625 97.230469 84.039062 C 95.726562 82.671875 93.90625 82.304688 91.945312 82.199219 C 89.652344 82.078125 87.359375 82.808594 85.125 82.488281 C 80.492188 81.820312 75.890625 82.6875 71.289062 82.578125 C 70.53125 82.5625 69.785156 82.835938 69.058594 83.140625 C 64.941406 84.902344 60.765625 86.574219 56.90625 88.867188 C 54.1875 90.476562 51.394531 90.707031 48.386719 90.082031 C 46.640625 89.75 44.332031 90.980469 43.769531 92.496094 C 43.191406 94.046875 44.222656 97.644531 45.667969 97.964844 C 47.761719 98.4375 50.132812 98.722656 51.984375 97.386719 C 54.265625 95.746094 56.832031 94.867188 59.367188 93.863281 C 63.238281 92.316406 67.507812 92.132812 71.367188 90.433594 C 71.941406 90.171875 72.6875 90.144531 73.476562 90.296875 C 78.109375 91.207031 82.40625 93.316406 87.085938 94.09375 C 85.15625 94.214844 83.273438 93.96875 81.464844 93.410156 C 80.660156 93.152344 80.25 93.363281 79.703125 93.863281 C 77.625 95.839844 75.96875 98.179688 74.175781 100.378906 C 71.867188 103.234375 69.558594 106.105469 68.101562 109.523438 C 67.949219 109.871094 67.476562 110.3125 67.917969 110.648438 C 69.085938 111.511719 68.160156 112.089844 67.71875 112.742188 C 65.683594 115.8125 63.953125 119.078125 64.804688 122.875 C 65.546875 126.125 67.128906 128.613281 69.375 130.226562 L 69.316406 131.605469 C 69.316406 134.628906 69.269531 137.53125 69.347656 140.429688 C 69.359375 141.039062 69.421875 141.949219 70.164062 142.132812 C 71 142.328125 71.015625 142.921875 71.167969 143.484375 C 71.457031 144.625 71.714844 145.777344 72.035156 147.113281 C 70.074219 146.292969 68.402344 145.125 66.414062 144.683594 C 63.179688 143.941406 59.839844 144.152344 56.574219 143.5 C 53.367188 142.859375 50.195312 142.527344 47.75 139.914062 C 46.167969 138.214844 45.226562 138.410156 43.601562 140.15625 C 41.792969 142.101562 39.972656 144.015625 38.226562 146.003906 C 36.386719 148.101562 34.445312 150.136719 33.972656 153.066406 C 33.804688 154.054688 33.183594 155.222656 34.261719 155.90625 C 35.292969 156.5625 36.023438 155.4375 36.753906 154.890625 C 39.410156 152.914062 42.050781 150.910156 45.46875 150.457031 C 46.53125 150.320312 47.597656 150.304688 48.402344 149.363281 C 48.796875 148.921875 49.464844 149.011719 50.042969 149.074219 C 53.488281 149.515625 56.800781 150.347656 59.914062 151.972656 C 64.304688 154.269531 68.996094 155.847656 73.628906 157.546875 C 77.578125 159.007812 80.523438 157.441406 81.9375 153.492188 C 82.378906 152.230469 82.695312 150.925781 83.03125 149.636719 C 83.472656 147.84375 83.894531 146.035156 84.261719 144.226562 C 84.472656 143.179688 85.582031 142.632812 85.535156 141.402344 C 85.492188 139.808594 85.492188 138.214844 85.507812 136.605469 L 85.550781 136.605469 L 85.550781 132.199219 C 83.441406 132.351562 81.722656 132.214844 80.296875 131.910156 C 83.457031 131.484375 86.613281 131.179688 89.789062 130.910156 C 91.824219 130.742188 93.769531 130.574219 95.820312 129.691406 C 99.234375 128.21875 102.789062 126.929688 106.34375 125.757812 C 108.457031 125.0625 110.367188 125.226562 112.265625 126.761719 C 116.003906 129.800781 120.394531 131.515625 125.101562 132.546875 C 131.570312 133.960938 137.722656 136.195312 142.660156 140.886719 C 143.371094 141.570312 143.980469 142.453125 145.148438 141.8125 C 146.015625 141.34375 146.882812 140.871094 147.320312 139.914062 C 147.441406 139.640625 147.625 139.382812 147.746094 139.09375 C 148.902344 136.605469 150.238281 134.28125 152.015625 132.136719 C 154.445312 129.207031 155.234375 125.621094 155.097656 121.839844 C 155.050781 120.582031 154.246094 120.140625 153.09375 120.65625 C 152.015625 121.128906 151.558594 122.160156 150.9375 123.027344 C 148.917969 125.851562 146.410156 127.960938 142.839844 128.507812 C 142.492188 128.570312 141.929688 128.691406 141.871094 128.902344 C 141.292969 130.742188 140.0625 129.816406 139.136719 129.511719 C 134.761719 128.097656 130.644531 126.109375 126.757812 123.632812 C 122.277344 120.777344 117.355469 118.589844 113.484375 114.824219 C 112.675781 114.050781 111.523438 113.835938 110.445312 113.820312 C 107.742188 113.792969 105.039062 113.714844 102.335938 113.972656 C 101.347656 114.066406 100.328125 114.246094 99.386719 114.050781 C 96.015625 113.382812 92.675781 113.957031 89.332031 114.261719 C 86.507812 114.519531 83.699219 115.007812 80.890625 114.15625 C 82.5 114.078125 84.09375 114.066406 85.703125 114.09375 C 86.402344 114.109375 87.023438 114.003906 87.648438 113.667969 C 93.222656 110.648438 98.492188 107.199219 102.957031 102.660156 C 103.714844 101.882812 104.324219 101.839844 105.25 102.203125 C 108.757812 103.570312 112.449219 104.285156 116.125 105.074219 C 119.164062 105.742188 122.367188 105.894531 125.039062 107.851562 C 126.058594 108.597656 127.378906 108.65625 128.609375 108.75 C 133.058594 109.082031 137.527344 109.371094 141.992188 109.417969 C 143.433594 109.433594 144.90625 109.585938 146.273438 110.101562 C 148.523438 110.949219 150.738281 110.84375 152.925781 109.992188 C 153.761719 109.660156 154.492188 109.628906 155.265625 110.085938 C 156.132812 110.601562 157.101562 110.753906 158.105469 110.632812 C 158.957031 110.539062 159.730469 109.3125 159.230469 108.839844 Z M 159.230469 108.839844 " fill-opacity="1" fill-rule="nonzero"/></g></g></g></svg>